<svg xmlns="http://www.w3.org/2000/svg" viewBox="0 0 412.412 29.562" enable-background="new 0 0 412.412 29.562"><path d="M167.686 16.75c-2.97.43-5.644.808-8.314 1.206-1.422.213-1.78.703-1.68 2.318.08 1.27.28 2.54.287 3.812.003.605-.255 1.254-.985 1.486-.658.21-1.238.066-1.794-.314-.855-.59-1.268-1.408-1.268-2.43-.004-3.188-.078-6.377.04-9.56.08-2.224.39-4.444.673-6.657.23-1.796 1.053-2.618 2.703-2.83 1.896-.243 3.795-.483 5.697-.657 3.418-.315 6.656.537 9.793 1.752 1.75.678 3.078 3.12 2.916 5.102-.05.604-.254 1.283-.615 1.756-.67.877-1.406 1.767-2.296 2.392-1.306.916-1.41 2.008-.934 3.33.48 1.342.957 2.686 1.482 4.01.22.555 1.123.723 1.64.35.765-.548 1.487-1.165 2.286-1.657.654-.402 1.6.373 1.623 1.17.09 3.012-3.575 4.842-5.773 3.787-1.696-.812-2.936-1.912-3.673-3.56-.644-1.433-1.117-2.945-1.808-4.806zm-8.903-9.868c-1.227 2.06-.73 4.178-.872 6.207-.057.815.64 1.476 1.492 1.476 3.89.006 7.53-1.008 10.928-2.86.524-.288.908-.868 1.293-1.362.438-.562.357-1.734-.203-2.2-.596-.497-1.242-1.054-1.96-1.263-3.585-1.047-7.178-.81-10.677.002zm80.464 7.75c-2.058 0-3.966-.016-5.872.008-.81.01-1.37.656-1.445 1.596-.15 1.908-.275 3.82-.44 5.73-.044.503-.858 1.1-1.402 1.08-.67-.022-1.263-.25-1.566-.886-.202-.424-.41-.896-.42-1.352-.107-5.273-.18-10.547-.255-15.822-.004-.318.035-.64.072-.955.087-.766.707-1.552 1.467-1.7 4.768-.934 9.518-1.21 14.15.652.88.353 1.756.807 2.503 1.385 2.475 1.912 2.477 5.535.04 7.465-.498.393-1.114.63-1.636.994-.382.267-.7.627-1.06.957 0 1.133-.1 2.25.022 3.34.174 1.55.496 1.734 2.543 1.953l.476.055c.64.112.98.872.71 1.45-.6 1.287-1.635 2.02-3.007 1.986-1.32-.035-2.54-.59-3.093-1.906-.426-1.016-.654-2.115-.967-3.18l-.823-2.848zm-7.136-3.375c2.718.477 5.23.48 7.682-.258 1.196-.36 2.336-.995 3.406-1.657 1.14-.705.997-2.635-.176-3.22-1.73-.864-3.57-1.376-5.502-1.407-5.598-.092-6.57-.213-5.41 6.54zm-103.508 3.84c.237-5.856 3.87-9.755 9.717-10.405.628-.07 1.267-.058 1.9-.102 4.91-.338 6.687 1.465 8.263 6.174 1.71 5.107.004 9.81-3.826 13.46-2.417 2.306-5.52 3.106-8.852 1.888-5.045-1.846-7.5-5.428-7.203-11.014zm16.583-.31c-.16-2.204-.436-4.245-1.82-5.944-.52-.637-1.13-1.125-1.97-1.213-4.02-.42-9.235 2.127-9.273 8.004-.023 3.613.994 6.184 4.587 7.59.923.363 1.82.424 2.78.072 3.07-1.127 5.752-5.16 5.695-8.508zM402.478.002c5.423-.06 9.518 3.49 9.933 8.032.034.357-.374.916-.726 1.106-.355.19-.99.203-1.332.004-.524-.305-1.01-.795-1.32-1.32-.56-.95-.854-2.072-1.486-2.963-1.213-1.71-3.238-2.03-5.115-.98-1.442.806-1.808 3.022-.596 4.122.698.63 1.543 1.113 2.358 1.602 1.367.82 2.768 1.586 4.147 2.39.41.24.84.475 1.19.794 4.218 3.853 2.913 8.064-1.953 10.068-.873.36-1.907.32-2.788.666-2.938 1.154-6.512-.69-8.245-3.402-.59-.922-.884-2.04-1.27-3.084-.188-.512.302-1.557.764-1.54.593.02 1.37.095 1.726.472.64.678 1.05 1.582 1.51 2.418.903 1.637 2.27 2.182 4.035 1.72 1.074-.28 2.168-.56 3.17-1.02 1.91-.868 2.206-3.015.596-4.24-1.01-.772-2.128-1.407-3.227-2.054-1.103-.648-2.276-1.176-3.355-1.857-2.58-1.63-3.506-4.035-3.086-7.002.19-1.36.897-2.434 2.15-2.973 1.155-.5 2.396-.793 2.918-.96zM273.132 12.45c-.048 5.47-3.542 10.068-9.5 11.287-.306.062-.646.1-.944.035-4.978-1.082-8.732-3.29-9.715-9.055-.79-4.643 2.586-10.275 7.053-11.768 1.56-.52 3.21-.61 4.658.127 1.967.998 3.906 2.12 5.656 3.455 1.992 1.522 2.994 3.672 2.792 5.918zm-3.712-.252c-.232-.693-.427-1.816-.96-2.742-.972-1.69-2.39-2.885-4.388-3.365-1-.24-1.852-.194-2.725.296-2.34 1.318-3.65 3.35-4.516 5.865-.954 2.774.605 6.097 2.847 7.427 1.43.85 2.973 1.084 4.55.357 3.18-1.46 4.77-4.025 5.193-7.838zm49.712.252c-.048 5.47-3.542 10.068-9.5 11.287-.306.062-.646.1-.944.035-4.978-1.082-8.732-3.29-9.715-9.055-.79-4.643 2.586-10.275 7.053-11.768 1.56-.52 3.21-.61 4.658.127 1.967.998 3.906 2.12 5.656 3.455 1.992 1.522 2.994 3.672 2.792 5.918zm-3.712-.252c-.232-.693-.427-1.816-.96-2.742-.972-1.69-2.39-2.885-4.388-3.365-1-.24-1.852-.194-2.725.296-2.34 1.318-3.65 3.35-4.516 5.865-.954 2.774.605 6.097 2.847 7.427 1.43.85 2.973 1.084 4.55.357 3.18-1.46 4.77-4.025 5.193-7.838zm-277.97 9.2c-2.017-.665-3.43-.212-4.85-.136-1.266.066-2.538.014-3.48.014-1.21.707-1.466 1.67-1.955 2.47-.917 1.493-1.797 3.017-2.8 4.452-.375.54-1.08.576-1.736.27-.645-.3-1.043-.837-1.018-1.48.025-.606.26-1.243.54-1.794 2.618-5.12 5.255-10.228 7.91-15.328.665-1.273 1.38-2.523 2.142-3.74.58-.924 2.284-.922 2.896-.02.354.52.645 1.096.898 1.676.834 1.902 1.71 3.79 2.438 5.734 1.347 3.59 2.624 7.205 3.88 10.83.31.898.577 1.867.56 2.8-.01.483-.6 1.08-1.083 1.386-.28.174-1.045.018-1.274-.256-.602-.715-1.143-1.53-1.5-2.39-.606-1.46-1.054-2.99-1.57-4.487zm-4.05-9.68c-1.056 1.973-1.89 3.47-2.66 5.002-.44.87.055 1.623.98 1.57.94-.055 1.882-.133 2.816-.25.94-.115 1.492-.838 1.18-1.615-.57-1.416-.708-3.045-2.317-4.707zm171.05 3.566c-.43-4.28-.772-7.45-.295-10.637.157-1.047.74-1.774 1.757-2.033 3.602-.922 7.244-.97 10.88-.266.917.178 1.78.68 2.64 1.09 2.12 1.012 2.895 2.906 2.99 5.068.03.71-.368 1.586-.853 2.14-1.28 1.464-2.884 2.522-4.875 2.77-2.366.293-4.74.51-7.11.773-.724.082-1.185.557-1.197 1.238-.046 2.387-.023 4.774-.006 7.16.005.658-.114 1.244-.618 1.713-.725.676-2.57.31-2.876-.64-.24-.745-.4-1.546-.42-2.323-.052-2.387-.02-4.776-.02-6.053zm8.215-10.373c-4.776.028-5.308.646-4.9 4.55.075.727.528 1.17 1.206 1.227 2.856.238 5.683.16 8.35-1.094.745-.35 1.284-1.172 1.18-1.86-.122-.817-.504-1.485-1.272-1.866-.28-.14-.58-.27-.887-.324-1.544-.28-3.092-.534-3.675-.634zM278.45 15.28c-.43-4.28-.773-7.45-.295-10.637.157-1.047.74-1.774 1.757-2.033 3.602-.922 7.244-.97 10.88-.266.917.178 1.78.68 2.64 1.09 2.12 1.012 2.895 2.906 2.99 5.068.03.71-.368 1.586-.853 2.14-1.28 1.464-2.884 2.522-4.875 2.77-2.366.293-4.74.51-7.11.773-.724.082-1.185.557-1.197 1.238-.046 2.387-.022 4.774-.006 7.16.005.658-.114 1.244-.618 1.713-.725.676-2.57.31-2.876-.64-.24-.745-.4-1.546-.42-2.323-.052-2.387-.02-4.776-.02-6.053zm8.215-10.373c-4.776.028-5.308.646-4.9 4.55.075.727.528 1.17 1.206 1.227 2.856.238 5.683.16 8.35-1.094.745-.35 1.284-1.172 1.18-1.86-.122-.817-.504-1.485-1.272-1.866-.28-.14-.58-.27-.887-.324-1.544-.28-3.092-.534-3.675-.634zm63.413 10.718c-.803 1.496-1.514 2.9-2.3 4.262-.393.682-.845 1.36-1.407 1.9-.468.447-1.14.494-1.762.12-.578-.353-.94-.853-.986-1.524-.02-.307.004-.658.134-.928 2.48-5.16 4.98-10.31 7.478-15.463.07-.143.153-.28.238-.414.56-.878 2.14-1.18 2.977-.538.372.283.727.607 1.03.965 3.926 4.613 7.518 9.463 10.413 14.803.226.416.425.85.61 1.287.228.54-.04 1.416-.54 1.684-.59.313-1.243.39-1.792-.028-.495-.377-.993-.818-1.317-1.338-.674-1.076-1.22-2.23-1.842-3.342-.5-.893-1.26-1.416-2.306-1.44-.795-.017-1.592-.003-2.387-.003l-6.24-.002zm4.64-7.735c-.452.13-.862.12-1.01.31-.762.997-1.743 2.14-1.02 3.37.572.975 1.964.8 3.044.836.38.013.832-.27 1.126-.55.13-.123.03-.63-.116-.87-.654-1.065-1.363-2.097-2.025-3.097zM330.99 1.987c3 .205 5.664 1.084 7.22 3.902.366.663.51 1.497.573 2.267.053.64-.276 1.22-.963 1.48-.682.26-1.335.056-1.717-.435-.478-.615-.7-1.42-1.115-2.094-1.1-1.783-2.832-2.36-4.965-1.71-1.494.458-1.988 1.886-.96 2.952.656.68 1.39 1.316 2.186 1.82 1.21.767 2.498 1.408 3.758 2.094 1.77.963 2.905 2.44 3.517 4.338.587 1.82.032 3.53-1.61 4.586-1.886 1.213-3.907 2.143-6.15 2.504-2.725.44-5.94-1.293-7.043-3.832-.252-.582-.377-1.217-.58-1.82-.23-.68-.088-1.28.48-1.682.746-.527 2.08-.22 2.523.566.467.83.766 1.775 1.338 2.517.338.437 1.06.794 1.615.808 1.98.05 3.74-.63 5.186-2.03.44-.425.564-1.23.175-1.735-.48-.623-.935-1.322-1.558-1.768-1.162-.828-2.404-1.566-3.678-2.215-1.624-.828-2.772-2.154-3.83-3.54-1.52-1.987-.745-4.97 1.436-6.17 1.317-.725 2.71-.88 4.162-.803zM.024 18.71C.407 13.93 2.137 9.694 5.52 6.288 7.653 4.14 10.38 3.366 13.442 3.8c1.66.234 4.194 2.66 3.607 4.9-.096.36-.584.69-.967.877-.203.1-.615-.072-.85-.238-.246-.175-.432-.466-.576-.743-.362-.7-.578-1.516-1.443-1.8-1.146-.374-2.232-.112-3.2.497-2.386 1.502-3.946 3.727-4.948 6.283-.635 1.617-.902 3.38-1.328 5.076-.512 2.04.097 3.81 1.47 5.297.75.812 1.64 1.51 2.542 2.156 1.178.846 2.29.72 3.52-.21 1.69-1.276 2.833-2.997 3.938-4.76.44-.706 1.29-.856 2.11-.51.816.347 1.28 1.212 1.014 1.897-.952 2.46-2.597 4.426-4.69 5.926-1.136.813-2.556 1.198-4.08 1.095-4.76-.32-9.956-5.572-9.538-10.835zm111.697-4.647c3.03.29 5.884.324 8.722-.266.985-.203 1.893.006 2.69.648.452.363.392 1.338-.058 1.662-.952.686-2.027.883-3.156.93-2.23.092-4.46.164-6.688.295-1.083.062-1.73.797-1.692 1.898.048 1.434.19 2.863.25 4.297.026.633-.01 1.275-.1 1.9-.093.668-.458 1.17-1.17 1.312-.743.145-1.67-.37-1.93-1.056-.11-.3-.285-.586-.327-.893-.827-6.02-.91-12.077-.8-18.142.01-.467.162-.94.3-1.397.244-.804.72-1.43 1.583-1.608.936-.193 1.928-.588 2.814-.434 3.062.533 6.03.014 9.028-.412.58-.082 1.272.107 1.804.383.357.184.716.735.724 1.128.008.38-.354.975-.698 1.113-2.257.91-4.647 1.08-7.048 1.005-4.907-.152-4.964-.117-4.94 5.03.003.626.16 1.255.27 1.878.024.146.15.27.423.73zm261.328-2.17c.14-2.555.26-5.107.43-7.658.062-.9.747-1.473 1.58-1.46 1.026.01 1.97.76 1.95 1.706-.04 1.915-.2 3.825-.272 5.74-.094 2.552-.184 5.106-.2 7.66-.01 1.056.784 1.788 1.787 1.89 2.754.275 5.432-.258 8.063-.922 1.53-.387 2.84-.135 4.11.63.223.136.425.575.38.83-.078.42-.345.815-.567 1.202-.07.12-.246.225-.39.25-4.726.852-9.47 1.518-14.292 1.14-1.27-.097-2.04-.772-2.43-1.958-.51-1.553-.535-3.142-.416-4.746.107-1.434.24-2.863.363-4.295l-.097-.007zM71.538 16.15c-.275-3.585-.548-6.763-.738-9.946-.04-.656.4-1.18 1.102-1.377.847-.24 1.888.096 2.065.715.174.607.36 1.23.406 1.854.354 4.613.83 9.227.957 13.848.116 4.188.76 4.68 4.826 4.178 1.426-.176 2.854-.342 4.286-.45.626-.048 1.267.034 1.896.097.5.046 1.183.92 1.02 1.4-.144.415-.442 1.015-.772 1.09-3.913.884-7.87 1.343-11.866.628-1.775-.318-2.525-1.158-2.643-2.88-.214-3.186-.378-6.374-.54-9.157zm-17.145 9.247c1.926.32 3.975.254 6.036.02.453-.05.998-.054 1.37.155.368.205.735.682.794 1.086.06.393-.172.945-.465 1.238-.308.307-.833.53-1.272.543-2.545.09-5.093.124-7.64.13-.46.002-.936-.176-1.38-.334-.8-.283-1.35-.852-1.536-1.682-.14-.62-.22-1.26-.248-1.895-.212-4.778-.44-9.556-.574-14.335-.03-1.088.252-2.19.455-3.277.098-.53 1.063-1.13 1.506-.89.52.278 1.09.694 1.33 1.198.253.537.17 1.244.188 1.88.125 4.143.24 8.288.353 12.43.036 1.276.003 2.56 1.083 3.73z" fill-rule="evenodd" clip-rule="evenodd" fill="#fff"/></svg>