<svg xmlns="http://www.w3.org/2000/svg" viewBox="0.005 252.976 1919.998 574.027" enable-background="new 0.005 252.976 1919.998 574.027"><path d="M739.59 467.544c6.557 5.022 13.448 2.98 19.98 3.362 4.73.28 9.472.502 14.19.985 3.14.33 7.05 4.527 7.6 7.704.455 2.633-3.69 7.076-7.26 7.417-10.456.986-20.918 1.864-31.38 2.706-8.66.7-14.022 5.26-16.4 13.538-15.023 52.22-30.4 104.347-44.905 156.706-5.088 18.35-8.408 37.22-11.788 55.995-1.505 8.372-1.367 17.132 6.324 24.728 3.154-1.487 7.077-2.365 9.633-4.73 7-6.46 13.7-13.31 20.03-20.44 15.22-17.132 30.245-34.444 45.18-51.827 6.21-7.232 11.866-14.935 17.968-22.268 10.344-12.433 18.74-26.346 31.005-37.382 6.163-5.542 10.056-13.782 14.397-21.14 8.426-14.295 19.915-25.63 33.38-34.945 5.423-3.75 11.556-6.693 17.713-9.124 13.973-5.524 26.197-2.58 36.098 8.957 3.087 3.607 6.073 7.29 9.017 10.832 4.682-.263 6.36-3.356 7.74-6.915 2.382-6.175 4.43-12.552 7.51-18.375 2.425-4.598 7.358-5.697 12.41-5.195 3.6.358 7.81 4.76 7.094 7.763-2.64 11.095-4.77 22.393-8.486 33.142-8.09 23.444-16.756 46.704-25.75 69.825-5.935 15.25-9.715 30.945-11.924 47.05-1.66 12.07-.7 15.174 7.046 30.306 3.207-2.066 6.7-3.672 9.393-6.15 25.457-23.475 46.202-50.903 64.815-79.84 12.325-19.176 24.812-38.297 33.49-59.758 6.795-16.792 17.328-31.745 29.2-45.7 9.596-11.274 20.548-19.832 36.624-23.45 2.383.537 6.234.926 9.71 2.275 21.456 8.33 30.795 21.916 28.79 43.778-1.398 15.21-4.874 30.145-11.216 44.214-.77 1.714-2.06 3.183-3.1 4.783-2.477 3.816-8.747 5.57-12.653 3.54-3.72-1.934-6.12-5.272-5.578-9.147.926-6.527 2.556-13.018 4.58-19.294 3.9-12.07 4.783-24.286 2.71-36.707-.453-2.73-1.898-5.328-3.074-7.895-1.33-2.902-7.195-5.088-9.954-3.828-1.72.782-3.667 1.314-5.094 2.472-3.685 3.01-7.608 5.91-10.606 9.547-28.048 33.96-45.324 72.716-50.7 116.517-1.886 15.39 1.016 30.48 5.16 45.253 2.204 7.86 14.326 16.62 25.648 11.925 9.817-4.067 19.15-8.7 27.07-15.783 17.078-15.27 34.473-30.24 50.912-46.18 17.915-17.37 32.23-37.71 44.715-59.297 1.906-3.302 3.38-6.873 5.447-10.074 5.13-7.943 11.435-15.288 15.484-23.726 3.668-7.626 4.808-16.44 7.358-24.64 5.1-16.39 10.516-32.687 15.502-49.115 1.08-3.554.902-7.49 1.356-11.74-2.83-1.213-5.225-3.017-7.72-3.154-6.653-.37-13.353.155-20.03-.018-7.363-.19-13.084-4.515-12.54-9.053.53-4.407 5.822-8.068 13.16-8.85 5.704-.603 11.425-.997 17.133-1.42 2.86-.21 5.774.005 8.574-.48 6.037-1.044 10.48-4.078 12.248-10.39 5.655-20.214 10.868-40.577 17.288-60.552 9.328-29.046 19.48-57.835 29.488-86.66 1.863-5.367 4.18-10.784 7.38-15.418 1.942-2.813 5.758-4.873 9.15-5.99 3.905-1.283 7.2 1.213 10.246 4.886-.12 2.187.364 5.16-.502 7.662-7.823 22.543-15.747 45.05-23.898 67.48-10.78 29.642-18.225 60.186-25.033 90.916-.166.734.515 1.66.813 2.538 4.467 5.416 10.516 2.77 15.98 3.016 7.01.316 12.87 2.998 17.77 7.996 2.33 2.37 1.22 8.683-2.07 9.674-3.554 1.075-7.274 2.078-10.94 2.138-8.487.15-16.978-.28-26.174-.496-2.443 4.724-5.166 8.635-6.594 12.982-4.45 13.58-8.372 27.338-12.564 41.007-12.02 39.227-21.928 79.04-31.243 118.96-4.098 17.567-5.328 35.798-7.824 53.73-.125.933-.215 1.99.084 2.85.872 2.513 1.302 6.084 3.117 7.117 1.893 1.08 5.834.61 7.787-.758 14.14-9.925 26.848-21.563 37.61-35.06 8.31-10.425 15.722-21.562 23.515-32.395 3.212-4.467 8.192-5.87 12.336-3.44 5.745 3.374 8.492 9.584 6.336 14.266-.394.866-.555 1.863-1.045 2.65-17.15 27.87-37.794 52.706-63.21 73.505-6.126 5.01-12.826 8.18-20.59 9.22-7.123.955-13.19-1.332-18.147-6.45-6.927-7.17-10.898-15.89-10.892-25.754 0-11.43.932-22.865 1.756-34.277.472-6.58 1.51-13.12 2.28-19.575-5.23-1.212-7.72 1.32-10.216 4.186-20.727 23.874-43.813 45.294-68.315 65.18-6.61 5.362-13.788 10.182-21.193 14.403-18.715 10.672-41.108 6.66-58.306-8.21-5.995-5.177-9.883-11.776-11.848-19.234-2.18-8.29-3.284-16.858-5.23-25.218-.556-2.37-2.425-4.437-3.662-6.58-7.56 2.86-9.847 9.667-14.093 14.617-4.352 5.076-8.246 10.546-12.635 15.574-9.41 10.778-18.978 21.425-28.55 32.054-7.745 8.593-18.315 9.84-28.855 9.943-5.763.06-11.37-2.848-14.93-7.5-4.006-5.243-7.35-11.083-10.282-17.02-2.365-4.788-3.66-10.09-5.972-16.72-6.425 6.582-11.645 12.01-16.965 17.336-9.565 9.578-21.043 16.207-33.04 22.334-18.237 9.322-41.664-6.455-43.873-23.785-1.44-11.322-2.293-22.728-3.48-34.886-2.766.973-6.062 1.13-7.64 2.86-10.312 11.25-20.254 22.847-30.33 34.32-7.565 8.604-14.75 17.603-22.846 25.67-6.705 6.677-13.978 13.09-21.95 18.13-14.983 9.466-33.47 3.482-40.672-13.065-3.368-7.75-4.753-16.355-7.327-25.6-2.28.616-5.248.532-6.83 1.978-11.99 10.934-23.57 22.286-37 31.56-7.936 5.482-16.16 9.996-25.672 12.23-9.393 2.198-16.94-.56-23.206-7.37-5.303-5.768-8.36-12.593-9.208-20.523-1.44-13.567.352-26.7 4.92-39.46 7.406-20.644 14.882-41.258 22.448-61.847 5.26-14.326 9.95-28.783 9.52-44.28-.025-1.038-3.058-3.056-4.247-2.77-2.628.62-5.23 2.114-7.4 3.816-14.343 11.244-27.05 24.21-38.462 38.367-7.823 9.7-16.105 18.823-25.666 26.86-5.1 4.29-9.47 9.424-14.23 14.118-12.558 12.39-20.423 27.5-25.254 44.255-2.908 10.08-5.28 20.327-8.038 30.46-.746 2.736-1.863 5.41-3.123 7.96-3.434 6.892-12.785 8.015-19.39 2.222-1.344-1.164-1.917-3.2-3.255-5.554 10.51-47.563 26.406-94.445 35.83-143.346-2.79.143-4.88-.388-5.984.424-3.822 2.807-7.345 6.02-10.892 9.184-16.666 14.88-34.83 26.753-58.192 27.977-9.22 14.086-15.974 28.8-23.647 42.97-10.963 20.238-24.03 38.947-39.77 55.74-3.9 4.155-8.12 8.114-12.636 11.596-14.105 10.886-29.637 12.522-45.766 5.362-9.793-4.34-18.136-10.486-21.223-21.814-1.445-5.31-4-10.32-6.563-16.738-3.947 2.842-7.41 4.568-9.84 7.232-7.077 7.757-13.88 15.777-20.543 23.898-22.203 27.07-50.76 46.005-80.474 63.573-17.485 10.33-36.277 10.736-55.553 8.288-2.77-.352-5.71-1.176-8.085-2.598-8.987-5.368-18.165-10.552-26.556-16.774-12.552-9.304-21.038-21.432-25.678-36.833C7.35 750.26 2.19 731.023 1.677 710.75 1.24 693.566.232 676.39.01 659.21c-.38-30.073 7.716-58.54 18.047-86.35 12.982-34.915 27.995-68.96 46.44-101.402 12.738-22.405 24.58-45.342 41.306-65.257 24-28.59 49.38-55.773 78.675-79.086 1.493-1.188 2.938-2.448 4.48-3.583 24.972-18.272 51.522-29.134 84.085-17.012 22.87 14.487 32.318 37.758 33.8 64.708.89 16.16-.658 32.24-4.736 48.226-7.888 30.91-19.396 59.895-39.538 84.98-2.384 2.975-4.653 6.152-7.55 8.558-2.04 1.696-5.05 3.093-7.6 3.063-2.527-.036-5.017-2.03-7.955-3.356.64-3.07.603-6.073 1.863-8.348 4.622-8.35 9.47-16.59 14.63-24.616 17.42-27.1 25.343-57.37 30.336-88.714 2.31-14.53.442-28.717-4.15-42.362-2.377-7.07-6.467-13.884-11.083-19.79-7.72-9.877-17.806-13.22-30.573-9.495-12.11 3.535-23.08 8.653-33.274 16.064-22.555 16.398-42.022 36.05-60.558 56.67-21.766 24.22-40.56 50.466-56.46 79.07-15.348 27.606-29.214 55.87-41.17 84.974-12.324 30.032-22.894 60.833-26.083 93.45-1.194 12.224-1.51 24.64-.944 36.916 1.308 28.538 2.36 57.142 12.152 84.57 4.365 12.253 11.74 21.39 22.31 28.818 14.535 10.217 29.995 11.334 46.417 6.79 3.655-1.015 7.333-2.37 10.623-4.234 26.693-15.018 52.645-30.885 72.93-54.64 14.243-16.68 29.477-32.51 44.31-48.68 8.468-9.226 14.983-19.133 18.583-31.65 8.605-29.91 26.287-54.955 46.41-78.155 13.515-15.568 32.14-23.713 50.926-30.92 4.16-1.6 9.804-1.75 14.002-.318 8.963 3.057 17.88 6.837 25.964 11.734 7.644 4.63 11.728 12.762 12.403 21.654.71 9.44.154 18.978.154 28.06 3.565 4.622 7.082 2.078 10.05.37 15.944-9.178 28.687-22.023 40.648-35.794 6.246-7.196 12.827-14.11 19.443-20.984 1.94-2.018 4.353-3.696 6.796-5.106 5.572-3.237 17.115-2.24 21.618 1.893 4.986 4.574 4.067 10.414 2.484 15.962-4.962 17.437-10.307 34.76-15.216 52.21-.98 3.48-.687 7.326-1.01 11.29 2.802-.172 5.083.383 5.913-.477 7.302-7.506 14.67-14.995 21.395-23.014 12.313-14.696 25.82-28.078 40.678-40.195 6.837-5.572 14.41-9.364 22.805-11.55 10.868-2.825 24.263 4.903 26.687 16.123 1.373 6.384 1.72 13.352.77 19.802-2.365 16.07-6.843 31.625-12.743 46.87-7.572 19.564-14.445 39.43-20.877 59.394-2.604 8.078-3.607 16.737-4.604 25.223-.41 3.56 1.112 7.34 1.66 10.534 7.21 2.872 12.135-.973 16.668-3.935 16.9-11.06 31.28-25.02 44.172-40.51 3.046-3.662 5.29-8.01 8.42-11.574 17.4-19.82 27.063-42.864 33.453-68.5 8.52-34.193 20.405-67.544 30.766-101.278 1.934-6.312 4.304-12.672 1.468-19.33-5.088-3.96-10.898-3.105-16.535-2.418-11.37 1.385-22.68 3.356-34.074 4.46-3.518.347-7.61-.626-10.714-2.322-1.93-1.05-3.034-4.49-3.47-7.04-.238-1.38 1.32-3.81 2.724-4.598 3.255-1.827 6.802-3.667 10.42-4.222 13.203-2.006 26.472-3.595 39.735-5.142 7.506-.872 15.33.018 23.462-5.076 1.97-6.127 4.42-13.293 6.593-20.536 11.53-38.38 22.937-76.788 34.51-115.15 1.97-6.52 6.563-9.142 13.054-8.23 6.587.927 10.516 5.973 8.856 11.98-3.786 13.8-7.66 27.57-11.794 41.275-5.786 19.182-11.734 38.32-17.795 57.418-3.144 9.992-5 20.162-6.01 30.176zM345.604 582.74c-8.874 1.058-15.687 6.438-22.154 11.82-6.55 5.44-12.87 11.417-18.148 18.07-6.51 8.198-11.907 17.293-17.646 26.083-13.956 21.36-19.867 45.402-21.748 70.37-.705 9.315 1.147 18.94 2.795 28.256 1.14 6.496 9.405 10.73 15.77 8.903 3.626-1.04 7.328-2.293 10.5-4.246 4.024-2.484 7.65-5.655 11.28-8.748 15.555-13.258 26.023-30.456 35.75-47.965 7.782-14.015 16.77-27.618 21.355-43.98-9.74-8.63-18.446-17.492-20.536-31.09.86-4.15 2.096-8.79 2.705-13.507.585-4.496 3.684-9.046.077-13.967zM797.39 687.436c1.157 9.978 1.814 16.62 2.734 23.223.585 4.156 7.136 7.26 11.406 5.6 12.743-4.973 23.122-13 31.53-23.802 19.384-24.907 34.42-52.663 51.797-78.884 3.75-5.655 4.45-12.33-1.606-18.076-3.69-3.505-3.242-8.635-3.81-13.376-.662-5.613-1.785-11.244-3.38-16.667-1.802-6.14-8.102-8.724-13.572-6.258-11.525 5.195-20.632 13.215-28.747 22.883-20.613 24.573-33.01 53.392-43.215 83.232-2.713 7.92-2.45 16.87-3.136 22.125zM371.7 618.01c5.183-8.987 6.617-15.586.758-22.298-5.2 9.435-5.22 9.435-.758 22.298zm1453.89-355.822c-1.732 3.792-3.5 8.115-5.63 12.254-21.47 41.58-40.118 84.277-54.318 128.974-12.707 39.986-26.555 79.59-46.005 117.02-16.344 31.463-26.89 65.155-35.734 99.366-3.822 14.762-7.106 29.667-10.474 44.536-3.19 14.08-2.73 28.222-1.792 41.222 5.267 3.583 9.09 2.86 12.116.537 9.06-6.95 18.75-13.412 26.508-21.653 28.108-29.84 57.064-58.85 83.076-90.726 22.89-28.042 48.19-54.138 72.728-80.813 6.43-6.993 13.878-13.072 21.038-19.366 8.002-7.04 17.222-7.304 26.896-4.24 5.756 1.826 8.187 10.103 3.625 13.572-9.178 7-17.21 14.965-24.233 24.15-10.773 14.092-16.59 29.755-17.664 47.485-1.278 21.092.502 41.944 3.583 62.76 1.112 7.537 2.593 15.037 3.34 22.603.847 8.635-.82 16.93-3.44 25.296-6.546 20.9-19.217 34.754-41.276 39.042-3.726.73-7.345 1.995-12.068 3.296-6.557-1.606-14.02-3.135-21.3-5.29-9.615-2.85-16.417-9.245-21.457-17.856-7.364-12.594-11.377-26.155-11.544-41.622-3.744.818-7.01.567-8.7 2.078-4.957 4.425-9.185 9.656-13.897 14.38-12.123 12.152-24.09 24.5-36.678 36.164-5.524 5.112-12.295 8.922-18.673 13.048-14.177 9.166-38.62 1.6-43.014-18.66-1.2-5.55-2.198-11.233-2.436-16.89-.394-9.464-.108-18.96-.108-28.34-2.79-.167-5.22-1.057-6.055-.257-7.584 7.23-15.502 14.265-22.137 22.32-9.81 11.914-21.48 21.76-33.333 31.274-11.955 9.59-26.024 15.813-40.702 20.327-5.625 1.733-11.22 1.165-16.75-1.157-17.007-7.16-28-18.846-31.655-37.615-1.845-9.47-3.792-18.763-2.478-28.305 3.51-25.505 6.39-51.152 11.28-76.4 11.615-60.014 29.446-118.464 46.35-177.116 9.263-32.157 23.105-62.618 37-92.94 9.514-20.764 20.716-40.763 30.85-60.505 2.52-1.105 4.198-2.34 5.99-2.532 6.89-.734 12.2 3.94 10.576 9.47-1.863 6.36-3.78 12.828-6.754 18.71-15.532 30.688-28.395 62.474-41.198 94.363-12.85 32.008-21.283 65.245-30.3 98.34-8.026 29.416-15.42 59.017-22.555 88.66-6.705 27.816-12.665 55.816-15.316 84.378-1.326 14.22-2.807 28.49-.328 42.722.806 4.634 2.4 9.172 4.013 13.62 1.426 3.942 7.816 6.892 11.924 5.805 12.14-3.23 23.217-8.772 32.987-16.565 24.74-19.736 46.34-42.273 64.595-68.374 20.888-29.846 39.102-60.808 51.206-95.318 3.77-10.73 9.466-20.823 14.697-30.986 11.376-22.1 20.476-45.115 28.33-68.66 4.836-14.476 10.11-28.802 14.69-43.36 13.202-41.98 32.233-81.53 50.363-121.462 1.965-4.33 4.252-8.545 6.682-12.63 6.126-10.298 15.836-9.85 25.558 1.866zm-26.21 392.284c-1.72 11.59-3.45 20.972-.268 30.33 3.23 9.477 8.115 17.85 18.38 20.178 11.346 2.58 20.703-2.83 27.547-11.388 4.06-5.07 7.135-11.364 9.046-17.598 2.49-8.14 3.368-16.63 2.174-25.415-3.338-24.526-6.073-49.14-9.047-73.702-.884-.245-1.726-.615-2.592-.675-.883-.072-2.107-.18-2.644.31-22.692 20.46-40.183 45.373-60.116 68.722 5.804 3.05 10.743 5.66 17.52 9.237z" fill="#fff"/></svg>