<svg xmlns="http://www.w3.org/2000/svg" viewBox="-0.006 236.222 1920.006 607.567" enable-background="new -0.006 236.222 1920.006 607.567"><path d="M1581.16 475.364c6.747-1.57 10.156-6.282 13.545-10.806 8.838-11.813 19.042-22.354 29.265-32.96 8.077-8.384 17.447-14.743 27.026-20.97 6.272-4.08 13.28-6.114 20.826-6.42 7.71-.312 14.574 3.808 17.41 10.975 2.158 5.434 2.925 11.123 1.61 16.828-1.282 5.563-2.785 11.12-4.748 16.476-6.743 18.382-12.887 37.004-22.114 54.405-3.435 6.473-6.415 13.28-8.71 20.228-3.33 10.1-5.42 20.478-1.575 31.49 2.658 0 5.557.91 7.116-.16 6.023-4.11 12.58-8.03 17.172-13.51 14.707-17.513 28.846-35.522 42.704-53.715 3.9-5.117 6.272-11.445 9.033-17.36 13.832-29.664 23.728-60.836 34.984-91.486.52-1.416.072-3.195.072-5.67-1.528-.68-3.59-2.453-5.51-2.315-14.66 1.053-29.286 2.576-43.936 3.742-4.856.383-9.804.516-14.62-.015-2.11-.23-4.31-2.122-5.94-3.774-2.76-2.796-1.18-9.385 2.346-10.357 3.118-.86 6.292-1.703 9.498-2.01 17.09-1.626 34.203-3 51.292-4.636 4.826-.46 9.595-1.513 13.557-2.157 5.986-5.286 7.433-11.808 9.278-17.953 9.402-31.346 22.595-61.28 34.102-91.84.542-1.44 1.88-2.575 2.893-3.91 6.446-3.042 10.817-.296 14.196 5.168.083 1.574.645 3.282.165 4.61-6.073 16.896-11.675 33.938-19.14 50.352-7.058 15.53-11.43 32.07-15.432 49.61 4.17.782 7.295 1.968 10.35 1.825 9.78-.46 19.543-1.31 29.292-2.21 5.117-.47 9.794.64 13.99 3.38 1.182.772 1.795 2.597 2.393 4.054.695 1.687-1.57 5.362-3.517 5.613-12.134 1.58-24.285 3.082-36.43 4.58-7.21.89-14.743-.818-22.258 2.842-1.375 2.448-3.343 5.12-4.478 8.106-6.083 16.026-11.967 32.128-17.907 48.204-7.075 19.14-13.572 38.47-22.69 56.838-8.4 16.905-14.64 34.633-15.53 53.78-.114 2.383.367 4.81.745 7.193.112.747.782 1.412 1.196 2.122 1.528.18 3.374 1.007 4.52.435 6.542-3.302 13.3-6.38 19.28-10.54 22.968-15.99 42.812-35.283 59.83-57.555 19.84-25.963 39.683-51.936 60.105-77.44 9.094-11.363 19.614-21.586 29.26-32.076 10.674 3.256 10.674 3.256 14.328 12.202-3.414 6.86-6.966 14.18-10.677 21.424-8.026 15.678-11.108 32.388-10.06 49.83.69 11.404 2.132 22.768 3.154 34.152 1.242 13.91 1.304 27.604-3.404 41.18-2.735 7.883-6.477 15.035-11.287 21.61-11.66 15.933-34.086 22.312-52.708 15.176-4.55-1.748-8.935-4.043-13.143-6.518-10.408-6.124-13.76-15.622-12.212-27.185.598-4.452 3.307-7.28 7.494-8.777 5.868 3.128 5.868 3.128 15.514 23.402 8.073 5.03 17.034 4.493 25.77 2.01 3.7-1.054 7.305-3.87 9.99-6.774 7.948-8.613 12.784-18.95 14.343-30.59.757-5.648 1.263-11.43.96-17.103-.93-17.125-2.243-34.224-3.577-51.323-.18-2.316-1.314-4.555-1.983-6.753-6.216.393-8.307 5.31-10.97 9.108-15.985 22.783-33.937 43.95-52.038 65.053-13.434 15.653-29.2 28.57-45.3 41.125-5.736 4.473-12.49 7.734-19.063 10.975-3.59 1.77-7.703 2.745-11.69 3.38-12.54 1.998-21.644-3.707-26.424-16.216-.864-2.26-1.513-4.6-2.617-8.005-2.96 2.15-5.73 3.66-7.85 5.806-4.596 4.636-8.58 9.907-13.333 14.37-6.563 6.154-13.75 11.393-22.38 14.72-6.66 2.572-12.523 2.02-18.882-.664-7.51-3.164-11.997-8.787-13.352-16.327-2.04-11.328-2.49-22.89 1.65-33.907 4.3-11.44 8.85-22.83 13.997-33.912 8.966-19.307 16.848-38.952 21.193-59.85.215-1.02-1.472-2.59-2.535-3.65-.45-.444-1.656-.485-2.362-.244-1.513.516-2.965 1.263-4.376 2.035-13.142 7.172-23.412 17.917-33.12 28.825-18.984 21.357-37.576 43.133-55.115 65.677-11.01 14.154-19.568 30.138-23.75 48.004-.53 2.25-2.044 4.273-3.322 6.84-2.5 0-5.066.578-7.218-.112-5.725-1.84-8.296-5.54-7.877-10.81.373-4.75 1.09-9.473 1.794-15.398-3.047 1.273-5.352 1.672-6.885 2.98-7.453 6.344-14.523 13.148-22.078 19.364-5.696 4.688-12.3 7.806-19.462 10.045-13.884 4.325-25.88.95-36.432-8.21-7.54-6.543-13.107-14.845-15.52-24.506-2.96-11.844-5.695-23.862-1.66-36.227 1.19-3.655.863-7.8 1.175-11.185-6.547-5.102-11.603.424-17 .235-6.513-.225-13.082.567-19.574.174-5.608-.337-11.15-1.718-17.11-2.704-2.437 2.336-5.044 4.33-7.023 6.82-16.245 20.477-32.077 41.292-48.66 61.494-8.786 10.704-18.453 20.76-28.41 30.4-6.098 5.914-13.95 8.526-22.625 5.142-10.075-3.93-15.73-11.486-17.007-22.052-.582-4.82-.066-9.78-.06-14.676.01-3.9.005-7.8.005-11.573-5.792-.95-8.767 2.234-11.353 5.173-10.316 11.727-22.344 21.51-34.31 31.417-18.47 15.29-38.958 26.658-61.787 34.137-11.307 3.7-22.2 5.025-33.467.526-2.254-.905-4.8-1.063-7.126-1.81-24.46-7.867-38.405-27.64-38.047-53.587.194-14.28 4.99-27.378 11.082-39.84 6.477-13.24 15.08-25.263 25.4-35.905 9.81-10.12 20.99-18.132 34.894-21.74 3.068-.798 6.043-1.95 10.02-3.252-3.91-8.04-7.74-15.177-10.868-22.604-2.837-6.733-5.025-13.752-7.29-20.714-3.117-9.615-2.294-19.144-.3-29.01 7.176-35.465 23.81-65.732 48.454-91.935 9.048-9.614 19.476-17.48 30.43-24.597 14.217-9.232 30.063-12.202 46.892-10.796 25.56 2.132 35.696 22.15 36.805 38.947.102 1.63.204 3.292.02 4.902-2.412 21.142-5.34 42.25-14.557 61.7-7.698 16.24-16.225 32.086-24.49 48.05-1.115 2.147-2.506 4.4-4.366 5.827-1.764 1.35-4.62 2.68-6.41 2.126-1.554-.48-2.955-3.533-3.195-5.598-.266-2.28.49-4.892 1.457-7.065 5.296-11.93 10.633-23.847 16.26-35.624 8.88-18.587 15.393-37.822 16.998-58.49.378-4.88.685-9.798.5-14.685-.664-17.293-8.09-25.59-24.914-27.7-3.134-.395-6.528.045-9.62.827-8.787 2.213-16.808 6.047-24.235 11.394-12.058 8.684-22.5 19.076-31.62 30.62-18.516 23.457-30.85 49.895-36.515 79.396-2.587 13.485.5 25.89 5.705 38.124 5.21 12.238 13.332 22.38 22.287 32.02 3.854 4.14 7.218 8.74 10.72 13.204.434.552.352 1.513.525 2.35-2.607 7.352-8.905 6.805-14.24 5.307-6.984-1.957-13.527-5.494-19.216-7.912-14.195.87-24.685 6.83-33.43 15.913-17.3 17.98-30.196 38.41-35.22 63.336-4.223 20.928 7.375 41.554 31.023 43.778 12.523 1.176 24.387-.496 35.955-5.337 15.243-6.38 29.127-15.28 41.354-26.014 23.948-21.015 46.394-43.655 67.75-67.363 5.634-6.252 9.703-12.964 11.8-21.076 3.47-13.444 7.14-26.837 10.85-40.215 1.53-5.522 3.405-10.884 7.674-15.112 2.33-2.305 6.257-3.46 8.813-1.38 1.713 1.39 3.95 4.013 3.665 5.68-1.968 11.22-4.033 22.47-7.024 33.45-6.645 24.405-13.843 48.665-20.84 72.972-3.206 11.128-4.25 22.44-2.823 33.917.153 1.232 1.56 2.888 2.72 3.25 1.313.41 3.347.032 4.487-.796 10.725-7.79 18.346-18.55 26.607-28.625 12.43-15.162 24.408-30.686 36.482-46.134 3.01-3.853 5.807-7.902 8.373-12.063 2.106-3.42 3.737-7.136 5.664-10.903-3.216-6.18-6.703-11.732-9.105-17.718-9.206-22.886-4.253-43.24 11.987-61.173 6.42-7.08 16.475-7.8 24.45-2.295 7.908 5.465 12.718 12.723 12.417 22.58-.313 9.81-1.202 19.52-4.93 28.84-3.025 7.57-5.36 15.417-7.76 22.436 1.033 5.48 4.213 7.48 8.59 8.18 8.418 1.354 16.46-.287 23.672-4.397 10.622-6.068 21.112-12.463 31.11-19.49 3.788-2.664 6.303-7.33 8.966-11.375 7.223-10.98 15.018-21.43 25.79-29.245 2.637-1.917 5.305-3.94 8.26-5.25 17.89-7.923 34.055-.85 40.363 18.81.706 2.19.62 4.97-.03 7.204-6.978 23.98-20.805 42.48-44.105 52.668-11.174 4.887-22.81 8.736-35.747 13.628-9.017 15.156-7.555 31.432.987 47.586 4.647 8.782 14.134 12.008 23.04 8.123 9.824-4.284 18.61-10.244 26.304-17.712 15.273-14.83 29.653-30.502 42.35-47.586 3.813-5.137 6.778-11.195 8.86-17.268 6.88-20.085 13.162-40.374 19.705-60.57 1.258-3.876 2.612-7.73 4.054-11.538 1.25-3.312 4.733-5.43 7.56-4.8 4.012.895 8.31 4.902 8.33 7.98.022 2.433.206 4.98-.423 7.27-2.592 9.415-5.46 18.754-8.23 28.12-2.075 7.017-4.37 13.985-6.088 21.085-.443 1.787.927 4.04 1.47 6.127zm-112.328 6.154c1.66 0 3.4.45 4.78-.066 15.968-5.986 27.674-17.038 36.068-31.576 2.382-4.125 3.466-9.073 4.677-13.76.317-1.212-.74-3.508-1.856-4.203-1.855-1.165-4.492-2.357-6.4-1.89-3.056.74-6.225 2.33-8.582 4.426-13.592 12.058-24.19 26.345-30.645 43.454-.336.87 1.32 2.495 1.96 3.614zm-97.748-21.612c7.34-10.878 9.032-23.32 9.237-36.1.016-.992-2.054-2.127-3.306-2.97-.45-.307-1.656-.235-1.994.138-9.804 10.827-14.17 22.983-8.516 37.28.327.85 2.545.962 4.58 1.652zM725.918 615.15c-8.118 6.166-14.42 11.22-21 15.89-13.392 9.502-27.102 10.197-41.205 1.25-4.28-2.713-7.8-5.924-10.086-10.396-1.79-3.502-3.343-7.12-4.744-10.12-6.19-1.315-8.358 2.846-11.088 5.51-10.54 10.295-21.173 20.36-33.85 28.166-6.027 3.716-12.013 4.616-18.68 3.803-8.076-.98-13.627-5.52-16.674-12.733-4.574-10.822-5.857-22.165-2.734-33.61 3.655-13.398 7.944-26.546 14.185-39.085 6.907-13.863 12.93-28.17 19.16-42.362.884-2.01.736-4.463 1.053-6.666-1.994-.5-3.95-1.636-4.74-1.09-14.143 9.903-26.5 21.84-37.98 34.634-15.274 17.023-29.613 34.87-46.017 50.894-5.884 5.746-9.932 12.79-11.992 21.035-1.958 7.82-3.45 15.943-7.918 22.276-5.45 3.14-10.034 1.88-14.804-.567l-4.243-8.563c-1.56.082-3.497-.404-4.602.342-4.723 3.184-9.273 6.65-13.766 10.166-6.707 5.25-14.645 7.545-22.773 8.158-11.293.85-20.99-2.832-26.73-13.526-1.913-3.568-3.554-7.29-5.225-10.745-5.01.026-7.898 2.975-10.57 6.073-11.876 13.735-28.264 19.103-44.857 23.586-13.49 3.64-26.5-7.003-26.995-20.964-.296-8.29 1.385-16.184 4.125-24 9.217-26.275 20.856-51.435 34.132-75.88 2.24-4.13 5.955-7.795 4.764-13.93-2.812-.777-5.868-1.805-9.002-2.464-5.54-1.155-11.123-2.09-17.007-3.18-9.457 8.542-17.217 17.973-25.217 27.128-9.186 10.515-19.18 20.12-30.247 28.595-6.46 4.948-12.942 9.932-20.988 11.266-3.72-1.048-6.354-3.042-7.08-6.466-.73-3.425.95-6.288 3.578-8.52 1.242-1.054 2.495-2.122 3.84-3.043 20.492-14 36.9-32.18 52.426-51.256.98-1.21 1.385-2.893 2.06-4.36.757-4.83-2.817-7.243-5.608-10.12-6.727-6.948-8.557-15.372-8.005-24.814 1.08-18.413 8.87-32.848 24.322-43.02 2.034-1.34 4.17-2.613 6.42-3.533 19.583-8.04 35.026 10.06 33.017 23.986-.808 5.592-2.075 11.272-4.166 16.496-3.93 9.835-8.613 19.364-13.04 29.158 4.427 5.787 10.868 6.538 17.33 6.242 6.496-.302 12.932-1.81 19.434-2.22 6.41-.398 11.783 8.9 8.112 14.232-14.43 20.98-25.82 43.604-35.895 66.852-6.16 14.2-10.97 29.01-15.96 43.69-1.282 3.768-1.35 8.154 3.022 11.687 9.59-.153 18.53-4.187 25.855-10.91 9.62-8.832 18.97-18.07 27.48-27.955 6.35-7.376 10.48-16.087 12.975-26 6.4-25.39 16.93-49.39 27.374-73.353 1.615-3.727 3.6-7.315 5.65-10.827 2.008-3.445 6.854-3.885 10.785-.762 1.834 1.452 3.015 3.732 4.91 6.19-1.103 3.69-1.993 7.637-3.455 11.37-5.97 15.212-12.498 30.215-18.08 45.566-4.744 13.035-9.365 26.24-12.335 39.744-2.25 10.244-2.413 21.076-2.413 31.647.01 10.172 4.994 14.287 16.526 8.87 8.987-4.218 16.46-10.64 22.993-18.066 5.94-6.753 11.558-13.792 17.498-20.544 9.866-11.2 16.552-23.775 21.066-38.22 6.81-21.788 13.194-43.83 23.06-64.563 1.732-3.645 3.715-7.315 6.312-10.336 1.258-1.462 4.483-2.387 6.344-1.86 1.932.54 4.406 2.954 4.682 4.84.567 3.905.654 8.256-.5 11.982-5.322 17.135-11.155 34.106-16.768 51.15-.997 3.046-2.484 6.154.194 9.195 6.395-.93 9.15-6.404 12.524-10.688 13.756-17.477 30.37-31.96 47.397-46.027 3.134-2.592 6.574-4.82 9.948-7.116 10.132-6.897 19.788-6.595 29.792 3.06 2.975 9.397 2.7 19.866-1.217 30.007-4.115 10.648-8.935 21.03-13.577 31.468-4.64 10.438-9.916 20.616-14.036 31.248-3.236 8.337-5.546 17.104-7.417 25.866-.803 3.75.378 8 .97 11.98.446 2.99 5.138 4.96 7.853 3.354 4.197-2.49 8.828-4.596 12.314-7.882 10.11-9.508 19.94-19.338 29.51-29.393 10.76-11.303 19.077-24.14 25.983-38.33 8.19-16.842 18.55-32.643 28.16-48.786 5.992-10.07 14.687-17.523 24.63-23.443 4.16-2.478 8.787-4.237 13.3-6.072 6.508-2.643 12.95-1.723 18.93 1.513 5.004 2.7 9.702 5.956 14.19 8.758 4.534-.317 5.188-3.82 6.466-6.57 1.723-3.695 2.934-7.63 4.764-11.265 3.215-6.385 9.994-6.206 15.586.317.496.578.567 1.518 1.37 3.772-2.745 9.702-5.77 20.677-8.956 31.606-3.205 10.975-6.886 21.833-9.764 32.89-3.082 11.833-5.393 23.866-8.2 35.77-2.627 11.13-5.704 22.156-8.132 33.33-2.345 10.796-9.21 20.754-7.135 33.513 26.617-9.533 45.53-27.015 61.878-47.825 1.007-1.278 1.595-2.888 2.663-4.11 11.7-13.388 17.232-28.437 18.162-46.7 1.268-24.768 9.978-47.837 24.828-68.192 7.305-10.014 16.005-18.55 26.372-25.36 13.546-8.905 27.558-9.344 41.748-1.78 2.806 1.5 5.327 3.814 7.48 6.207 8.367 9.288 9.895 33.804.873 43.747-4.382 4.83-8.574 10.096-13.793 13.853-16.7 12.018-34.213 22.502-55.806 22.85-2.39.04-4.763.86-7.488 1.385-1.242 1.937-3.333 3.798-3.66 5.935-2.24 14.574-3.123 29.265-1.31 43.94 1.96 15.786 12.07 20.617 26.23 13.087 9.544-5.08 17.4-12.258 24.567-20.09 7.702-8.423 14.65-17.538 21.97-26.315 2.137-2.566 5.94-3.23 8.884-1.718 5.142 2.643 8.26 7.97 6.83 11.675-.59 1.522-.983 3.173-1.846 4.518-12.13 18.81-27.415 34.535-46.906 45.638-19.48 11.098-36.75 7.934-52.728-8.654-1.125-1.17-2.382-2.22-3.61-3.353-3.792-.512-5.627 2.264-7.41 4.768-14.043 19.69-32.262 34.443-53.28 46.144-12.82 7.136-25.233 15.003-38.375 22.88-3.11 9.288-6.156 18.55-9.31 27.772-4.764 13.904-9.135 27.972-14.558 41.615-4.514 11.373-10.193 22.28-17.59 32.198-11.71 15.714-22.942 31.806-35.062 47.192-4.994 6.34-11.394 11.747-17.81 16.74-9.845 7.674-20.897 8.574-32.348 3.482-9.682-4.304-15.714-11.793-17.252-22.12-1.196-8.065-.89-16.31 1.523-24.306 7.652-25.4 18.648-48.542 39.27-66.56 22.767-19.906 44.91-40.48 70.353-57.064 3.415-2.224 6.717-4.698 9.753-7.412 2.402-2.147 5.07-4.52 6.28-7.356 2.86-6.742 4.82-13.858 7.316-20.764 1.904-5.377 3.76-10.703 2.262-19.87zm30.205-101.03c-2.607-5.14-4.222-8.858-6.287-12.318-6.64-11.118-16.465-12.953-26.178-4.05-7.13 6.54-13.746 13.844-19.553 21.583-12.75 16.992-21.623 36.212-29.587 55.78-4.672 11.48-4.667 23.79-3.936 35.972.424 7.105 7.105 10.883 14.236 8.746 8.85-2.658 15.872-8.153 22.006-14.67 7.218-7.68 14.063-15.73 20.764-23.868 10.898-13.245 20.197-27.22 22.45-44.98.907-7.15 3.785-14.05 6.085-22.194zM699.34 697.61c-3.526 1.78-6.73 2.735-9.113 4.698-15.13 12.452-30.44 24.716-44.984 37.822-16.046 14.466-27.456 32.235-34.29 52.882-2.607 7.882-3.967 15.78-2.975 24.06.44 3.676 5.07 7.53 8.85 6.62 3.9-.94 8.193-1.773 11.327-4.022 5.26-3.773 10.392-8.107 14.426-13.132 13.27-16.557 26.69-33.058 37.61-51.323 9.272-15.51 16.275-32.025 20.23-49.697.48-2.122-.578-4.59-1.08-7.908zM860.82 515.39c18.362-3.917 34.11-11.712 47.54-23.842 7.908-7.14 9.912-16.42 6.732-26.72-1.426-4.635-6.548-8.147-11.307-7.11-3.103.68-6.303 1.59-9.043 3.14-18.724 10.596-29.168 27.68-36.054 47.288-.592 1.702 1.192 4.243 2.132 7.243zM327.34 490.213c6.68-10.443 13.178-21.362 16.25-34.06.368-1.528.435-3.246.143-4.78-.286-1.493-.86-3.318-1.948-4.16-.987-.763-3.205-1.034-4.263-.43-13.28 7.514-18.612 19.48-18.208 34.23.102 4.037 2.014 7.574 8.026 9.2zm-44.954-208.496c5.362-4.146 10.438-8.21 15.673-12.074 4.308-3.18 8.965-3.522 14.2-.685.557 2.78 1.186 5.872 1.84 9.098 3.48 3.404 7.78 2.28 11.394.895 16.762-6.426 33.942-12.18 47.248-25.155 1.14-1.11 2.673-1.88 4.146-2.566 2.95-1.375 5.97-2.76 9.2-.685 2.97 1.917 3.63 7.376 1.61 11.036-7.416 13.418-18.315 22.916-32.464 28.585-13.705 5.49-27.71 9.907-42.602 10.873-7.295.476-14.574 1.274-21.91 1.928-8.55 11.64-15.65 23.448-21.878 35.88-15.765 31.504-28.064 64.27-37.168 98.285-3.164 11.84-6.89 23.53-9.994 35.384-1.615 6.19-2.438 12.595-3.727 19.49 3.246.706 5.623 1.933 7.698 1.55 12.85-2.382 25.6-5.326 38.466-7.6 2.964-.522 6.42.362 9.364 1.4 3.26 1.15 5.004 4.038 5.086 7.606.066 2.776-2.888 5.68-6.34 6.328-19.255 3.635-38.51 7.24-57.757 10.9-.762.142-1.43.77-3.614 2.013-1.294 3.21-3.574 7.514-4.78 12.1-7.74 29.418-20.295 56.854-33.698 84.002-15.08 30.528-36.12 56.337-61.654 78.538-14.2 12.355-31.657 16.317-50.02 16.91-3.235.107-6.5-.85-9.752-.9-28.33-.44-49.406-27.967-50.888-53.705-1.268-21.94 13.996-47.622 34.213-54.676 13.71-4.785 27.32-4.018 39.55 5.03 2.674 1.978 3.927 6.497 1.923 8.62-1.56 1.65-3.926 2.59-6.037 3.633-.608.302-1.59-.092-2.382-.24-.797-.153-1.615-.302-2.357-.624-7.785-3.41-15.652-4.942-23.53-.418-8.716 5.004-15.545 11.655-19.277 21.357-3 7.8-4.304 15.646-3.65 23.978 1.298 16.608 12.892 29.362 29.342 30.845 20.35 1.835 38.855-2.617 54.206-17.222 22.722-21.622 41.462-46.077 55.06-74.473 10.253-21.418 19.363-43.26 26.458-65.917 1.176-3.767 1.416-7.83 2.01-11.302-6.672-6.23-14.958-3.164-21.557-6.216-2.097-.966-3.917-2.68-5.64-4.284-1.717-1.58-.807-5.7 1.248-6.047 3.972-.664 7.96-1.384 11.972-1.7 6.44-.502 13.137.73 18.97-3.083 8.624-15.81 11.522-26.034 12.32-43.415-1.427-.17-3.14-.925-4.25-.4-6.644 3.14-13.203 6.478-19.695 9.933-14.114 7.53-29.536 9.278-45.076 9.815-14.938.51-26.97-5.55-35.354-18.213-7.417-11.2-11.95-23.32-10.68-36.943 1.294-13.858 3.728-27.476 9.126-40.486 11.215-27.052 27.43-49.855 52.37-66.23 15.795-10.36 31.27-21.397 50.147-24.812 20.865-3.773 41.844-7.545 63.298-6.017 6.477.467 12.994.078 19.588.078zm-16.23 21.158c-3.793-.68-6.84-1.88-9.764-1.63-11.333.955-22.65 2.187-33.937 3.65-32.997 4.283-59.547 20.778-81.59 44.773-16.28 17.717-25.487 39.534-31.913 62.394-1.932 6.875-2.535 14.66-1.534 21.715 1.937 13.596 9.64 21.02 22.6 21.198 7.984.107 16.485-.705 23.886-3.435 11.374-4.202 22.38-9.774 32.838-15.95 10.45-6.164 20.038-13.79 30.81-21.346 3.035-8.445 6.097-17.687 9.69-26.725 3.89-9.815 8.16-19.476 12.464-29.112 3.977-8.905 9.007-17.42 12.125-26.602 3.382-9.952 12.89-16.837 14.326-28.932zM499.98 396.1c.006 6.46-6.25 12.095-12.8 11.527-3.802-.332-7.35-4.16-7.508-8.107-.24-6.088 4.074-11.006 9.953-11.358 5.224-.318 10.346 3.62 10.356 7.938z" fill="#fff"/></svg>