<svg xmlns="http://www.w3.org/2000/svg" viewBox="-0.02 135.864 1920.025 808.28" enable-background="new -0.02 135.864 1920.025 808.28"><path d="M1030.896 769.377c23.522-69.895 43.86-130.848 64.66-191.64 2.453-7.163 7.065-13.702 11.323-20.095 4.66-7.003 18.055-8.504 26.693-3.6 6.942 3.954 12.017 12.775 10.114 19.326-13.08 44.872-26.645 89.61-39.53 134.532-8.05 28.073-16.225 56.194-22.472 84.694-5.393 24.693-7.845 49.972-3.22 73.726 8.698 8.1 16.213 5.478 21.79.183 16.945-16.092 33.537-32.587 49.532-49.63 21.265-22.67 41.835-46.008 65.43-72.08 9.748-35.65 19.948-75.275 31.538-114.51 8.26-27.952 17.25-55.793 28.036-82.84 8.273-20.717 23.95-23.12 47.814-9.75 0 5.247 1.257 11.2-.183 16.41-21.154 76.984-42.846 153.82-64.014 230.792-8.918 32.404-10.517 65.16-3.21 96.833 10.432 8.467 19.63 5.588 28.17.573 31.173-18.36 53.914-45.75 71.3-76.165 29.938-52.4 59.902-104.934 82.704-161.177 15.36-37.882 33.05-74.812 49.923-112.07 4.33-9.578 15.055-14.74 23.668-12.262 15.91 4.563 26.268 17.178 21.986 29.207-7.82 21.96-16.056 43.896-25.974 64.966-13.25 28.17-25.596 56.56-35.65 85.608 4.906 2.708 8.834 6.515 10.75 5.685 63.574-27.463 116.755-69.932 166.483-117.098 32.538-30.867 64.222-62.636 96.82-93.454 20.13-19.044 31.27-16.628 51.584 10.09-10.237 32.673-36.602 59.22-40.97 94.858-3.098 25.084-5.562 50.253-7.697 75.434-.28 3.257 3.184 6.82 5.99 12.395 27.036.683 50.912-12.615 76.08-21.716 24.658-8.905 39.566-30.56 59.697-44.664 6.99 2.66 12.993 3.745 17.568 6.905 14.396 9.908 16.678 29.782 4.502 39.676-9.004 7.32-18.374 14.848-28.78 19.667-26.5 12.273-53.522 23.485-80.63 34.32-16.276 6.502-33.125 11.504-48.216 16.677-11.26 9.687-10.468 21.814-12.15 33.258-2.795 19.252-3.795 39.175-9.688 57.488-15.52 48.337-45.03 84.914-92.124 107.777-27.646 13.42-77.996 5.978-101.25-23.35-8.077-10.176-13.298-24.06-15.604-37.004-2.696-15.117-.61-31.063-.927-46.643-.72-34.65 16.3-59 44.007-77.57 27.95-18.714 59.696-28.377 91.1-38.747 10.918-3.587 22.984-3.562 32.183-8.784 10.26-34.6 10.26-34.6 4.965-81.546-3.575 0-8.04-1.354-10.65.268-6.54 4.087-12.457 9.297-18.253 14.457-61.916 55.145-129.98 99.408-211.49 120.05-3.698.94-7.053 3.172-11.408 5.185-16.336 13.75-23.376 34.295-33.953 52.827-25.522 44.726-60.048 81.205-105.75 106.093-6.82 3.71-14.056 6.857-21.4 9.382-20.936 7.21-44.763.244-57.048-18.227-7.43-11.188-12.98-23.864-17.86-36.454-3.44-8.88-4.308-18.75-6.284-27.95-5.417.403-10.212-.695-12.554 1.22-7.466 6.05-14.616 12.713-20.814 20.07-20.716 24.57-46.605 40.81-74.74 49.788-28.218-2.062-46.506-14.518-57.462-37.82-3.94-8.42-8.21-16.69-12.713-25.84-20.533 10.308-36.65 24.143-52.925 38.174-28.585 24.62-62.075 39.992-99.078 47.532-11.822 2.403-22.997.854-34.075-4.356-27.902-13.127-47.483-32.684-56.353-63.27-5.514-19.02-9.31-37.992-8.394-57.548 3.965-85.914 29.305-164.447 81.754-233.5 13.335-17.556 30.708-30.232 49.667-40.102 9.895-5.148 22.4-7.003 33.796-7.198 39.138-.683 64.844 35.698 51.9 72.164-14.226 40.09-37.272 72.616-77.3 90.916-24.755 11.31-49.192 23.315-76.29 36.198-10.906 31.745-19.14 65.357-18.092 100.786.28 9.7.964 19.557 3.062 28.976 7.894 35.503 35.966 42.7 62.636 28.854 45.312-23.522 83.913-56.67 119.465-93.16 10.847-11.176 20.693-23.34 28.49-32.197zm538.384 94.93c.646 2.513 2.27 10.004 4.526 17.288 4.355 13.982 18.08 20.655 32.123 16.165 18.74-6.003 34.452-15.8 47.3-31.367 22.728-27.573 37.6-57.94 39.59-94.04.56-10.26-8.102-20.032-16.935-18.373-24.754 4.66-48.79 11.785-70.347 25.01-7.954 4.868-16.946 11.42-20.52 19.398-8.564 19.155-17.544 38.76-15.738 65.92zm-705.637-193.8c46.153-18.558 66.504-45.288 79.607-78.68 1.025-2.635-.94-7.906-3.282-9.98-2.11-1.88-7.37-2.55-9.968-1.232-32.953 16.616-49.582 45.775-66.357 89.89zM650.53 221.12c-14.13-.622-19.595 8.09-26.024 14.726-51.863 53.68-93.673 114.536-128.127 180.6-50.46 96.772-100.897 193.557-151.613 290.183-20.826 39.7-42.103 79.168-63.722 118.44-15.153 27.537-33.71 52.73-59.196 71.604-46.118 34.148-96.65 49.265-153.907 33.514-33.148-9.114-53.67-30.928-63.112-63.002-11.71-39.773-.45-77.325 15.02-113.51 14.604-34.125 41.86-55.732 76.13-68.457 25.046-9.298 49.825-7.26 73.554 4.99 7.503 3.88 10.822 10.6 9.894 19.202-8.796 6.247-18.422 2.538-27.926 1.623-43.128-4.124-92.453 34.55-99.25 74.91-3.232 19.14-8.747 38.21-9.308 57.438-1.086 37.6 21.448 59.318 58.098 56.84 31.513-2.134 61.257-10.552 85.83-32.354 19.08-16.923 36.746-34.76 48.85-57.647 20.947-39.614 43.75-78.3 63.39-118.55 53.902-110.412 113.427-217.81 172.634-325.368 34.136-61.99 78.033-116.488 127.785-166.484 17.886-17.97 35.76-35.965 54.036-53.52 10.102-9.7 26.706-8.553 37.016 1.44 10.138 9.82 16.3 21.642 18.715 36.087-44.385 177.123-79.448 356.735-113.78 536.493-.646 3.367 1.88 7.345 2.953 11.114 9.65-.256 11.127-8.87 14.03-14.933 21.094-43.932 38.602-89.317 54.78-135.263 9.698-27.548 20.08-54.9 31.244-81.888 19.447-46.972 44.055-91.21 72.604-133.3 22.973-33.87 46.398-67.505 67.894-102.312 17.593-28.463 38.675-54.07 61.77-77.667 16.13-16.494 35.88-29.804 55.243-42.675 11.444-7.6 26.06-9.82 39.42-4.94 8.588 3.134 15.823 10.028 22.447 14.407-.415 11.31-4.575 19.093-12.627 19.777-36.357 3.05-59.806 25.912-81.742 51.3-10.187 11.786-20.484 23.682-29.085 36.626-34.478 51.96-68.382 104.312-102.397 156.602-34.282 52.693-58.365 110.29-77.995 169.56-25.804 77.897-58.805 152.758-92.148 227.485-15.092 33.82-31.574 66.918-40.883 103.03-2.684 10.37-11.078 15.373-21.704 16.447-10.273 1.037-22.02-5.124-22.84-13.7-2.207-23.108-5.013-46.325-4.733-69.47 1.122-90.195 20.387-177.805 39.553-265.403 19.167-87.55 37.625-175.27 56.548-262.866 7.04-32.294 14.482-64.515 22.68-101.128z" fill="#fff"/></svg>