<svg xmlns="http://www.w3.org/2000/svg" viewBox="-0.01 415.521 1920.016 248.952" enable-background="new -0.01 415.521 1920.016 248.952"><path d="M1644.73 576.995c7.27-5.542 13.867-11.003 20.923-15.787 4.118-2.784 13.39-.514 15.238 3.91 1.48 3.542 2.46 8.59 1.055 11.85-6.776 15.86-18.87 24.872-36.62 24.97-17.302.09-30.91-6.847-38.325-22.752-4.794-10.318-7.876-21.437-11.642-32.206-3.83-10.984-8.308-15.436-18.6-13.237-20.715 4.415-43.072-3.82-62.644 8.398-7.19 19.43-1.81 39.704-3.983 59.456-.46 4.136-1.07 8.867-3.396 12.02-2.217 3.03-6.632 5.876-10.282 6.147-8.66.63-18.04-6.55-19.554-13.706-.883-4.172-1.91-8.46-1.83-12.67.893-44.46 1.956-88.912 3.065-133.373.108-4.28.55-8.588 1.208-12.832 2.02-12.832 9.985-20.924 22.448-22.347 7.11-.83 14.31-1.108 21.473-1.18 25.81-.243 51.707-1.64 77.415.018 18.42 1.18 36.882 5.39 54.66 10.56 7.435 2.146 14.455 9.29 19.366 15.897 9.102 12.246 7.832 29.412-3.387 39.297-11.74 10.327-25.123 18.815-37.99 27.826-6.65 4.668-9.436 10.912-7.57 18.464 2.748 11.102 5.875 22.194 9.92 32.872 1.307 3.458 5.993 5.675 9.056 8.405zm-131.12-72.18c42.54 5.507 79.477-2.883 114.944-19.832 3.803-1.81 7.038-4.875 10.336-7.587 7.29-6 6.29-17.932-1.946-21.194-6.605-2.604-13.463-6.128-20.302-6.335-30.088-.937-60.203-.982-90.29-.83-3.822.02-7.624 3.083-12.472 5.173-2.19 15.544-4.236 30.908-.27 50.606zM508.27 535.284c14.165 6.533 27.033 4.73 39.793 3.91 15.76-1.017 31.503-2.46 47.29-3.08 5.57-.208 11.633.495 16.688 2.62 3.398 1.425 7.156 5.894 7.56 9.38.38 3.254-2.594 8.38-5.604 10.23-4.686 2.883-10.543 4.748-16.05 5.19-24.284 1.972-48.65 3.198-72.953 4.946-2.667.188-5.208 1.954-8.46 3.234-8.11 11.95.774 24.303-1.776 35.197 4.343 2.92 6.605 5.76 8.867 5.76 31.548 0 63.096-.533 94.634-.578 8.48-.018 17.03.72 25.42 1.937 2.055.296 4.037 3.603 5.344 5.946 2.703 4.803-.56 8.85-3.803 11.02-4.597 3.065-10.21 6.147-15.51 6.39-41.585 1.83-83.198 4.857-124.84 1.29-16.435-1.407-25.978-10.77-27.032-27.72-2.478-40.07-4.56-80.18-6.37-120.297-.388-8.516.756-17.158 1.756-25.692.865-7.353 7.55-13.445 14.31-13.832 2.866-.162 5.767-.297 8.615-.09 40.26 2.992 80.225-.946 120.26-4.524 8.246-.74 16.978.757 25.052 2.866 2.848.74 6.09 6.443 6.073 9.858-.018 3.325-3.38 8.786-6.28 9.588-10.95 2.974-22.23 5.262-33.53 6.335-29.972 2.828-60.024 4.874-90.04 7.334-5.686.46-11.264 5.857-11.12 10.984.407 14.176 1.137 28.36 1.705 41.795zm716.065-13.553c.955-25.465 1.568-49.912 2.938-74.323.72-12.976 8.867-21.77 22.122-21.996 41.64-.702 83.28-.405 124.92-.26 2.605.018 5.19 2.09 7.796 3.2 4.804 2.072 8.66 9.857 6.11 14.29-1.955 3.398-5.208 6.85-8.714 8.345-3.677 1.586-8.344 1-12.57 1.162-30.143 1.18-60.285 2.235-90.418 3.523-6.94.297-13.643 6.794-14.238 13.76-.865 10.01-1.532 20.068-1.694 30.115-.19 12.372 5.082 17.39 18.815 17.743 20.114.496 40.272.126 60.366 1.072 5.172.243 10.93 3.235 14.94 6.686 2.415 2.064 2.766 7.497 2.496 11.318-.162 2.27-3.082 5.947-5.118 6.21-12.778 1.693-25.645 2.783-38.486 3.712-7.173.514-14.39.595-21.582.46-31.764-.595-33.233 7.497-27.826 36.855 1.144 6.228 5.28 10.21 11.56 10.967 28.683 3.433 57.384 4.208 85.922-1.198 8.858-1.677 17.04-.83 25.132 2.865 4.262 1.955 10.408 10.49 8.66 13.68-1.99 3.585-5.082 8.57-8.38 9.154-26.808 4.802-53.436 12.074-81.118 9.118-18.58-1.99-37.207-3.803-55.724-6.335-12.165-1.667-20.24-10.705-21.194-23.6-1.874-25.818-3.2-51.67-4.713-76.523zm-179.545 12.372c18.85 24.573 32.404 48.047 55.14 62.04 10.19-1.64 12.146-9.028 15.877-14.975 2.18-3.487 5.28-7.76 8.777-8.696 5.11-1.387 11.435-1.37 16.274.533 2.848 1.126 5.46 7.056 5.416 10.786-.46 33.034-32.224 52.326-60.455 35.62-13.292-7.867-24.35-19.78-35.56-30.746-7.127-6.966-12.38-15.823-19.057-23.32-3.73-4.19-8.39-7.74-13.165-10.715-1.847-1.145-5.614-.668-7.722.495-2.253 1.235-5.037 4.118-5.055 6.3-.053 8.533 1.09 17.075 1.425 25.608.333 8.552.532 17.14.19 25.682-.226 5.857-11.382 10.858-17.248 8.038-6.704-3.217-12.634-7.885-13.985-15.31-3.064-16.932-6.92-33.99-7.29-51.075-.784-35.82.216-71.683 1.045-107.538.243-10.822 10.67-16.968 21.807-13.22 3.604 1.217 8.47 4.66 9.074 7.796 1.856 9.732 2.226 19.797 2.65 29.764.558 12.814.386 25.664 1.17 38.46.1 1.53 4.695 4.45 6.308 3.928 5.37-1.694 11.12-3.75 15.292-7.317 21.77-18.652 43.208-37.692 64.528-56.868 6.38-5.758 11.48-12.976 18.12-18.356 5.705-4.632 12.86-5.47 20.33-2.902 7.353 2.532 12.327 10.804 8.732 16.544-3.785 6.02-7.795 11.985-12.39 17.41-22.395 26.32-48.59 48.587-80.228 72.034zm-831.047 23.07c-2.748-29.34 5.452-66.26 8.227-103.556 1.01-13.697 9.777-22.347 21.924-22.528 44.56-.613 89.228-3.217 133.12 8.497 13.428 3.568 23.44 10.246 30.747 21.717 8.507 13.354 8.39 27.61-1.27 40.198-12.498 16.32-27.51 29.818-47.903 35.026-20.852 5.335-41.974 9.642-63.078 13.886-7.003 1.406-14.347 1.18-21.52 1.81-22.923 2.056-25.24 4.362-24.788 25.448.243 11.507 1.1 23.023 1.198 34.548.045 5.704-.55 11.507-1.676 17.112-1.235 6.09-5.596 10.948-11.67 10.47-5.18-.387-11.452-2.9-14.777-6.65-3.442-3.91-5.028-10.344-5.46-15.84-1.39-17.23-1.84-34.53-3.074-60.14zm43.84-97.465c-4.245 19.96-4.804 37.027-4.416 54.175.126 5.37 5.785 10.56 11.49 10.543 27.384-.09 54.102-4.632 80.135-13.057 12.616-4.082 22.42-12.246 30.466-22.726 5.3-6.884 2.866-18.21-4.983-21.996-2.568-1.253-5.064-3.028-7.795-3.523-33.702-6.183-67.457-11.968-104.898-3.416zm-183.692-43c43.155-.145 69.116 25.275 69.927 62.022.054 2.603-1.388 5.667-3.1 7.72-1.658 1.992-4.433 3.84-6.902 4.1-2.496.262-6.686-.702-7.605-2.46-4.596-8.803-7.957-18.246-12.525-27.068-5.09-9.822-13.904-14.237-24.862-13.958-13.2.342-25.62 3.136-35.747 12.534C39 472.656 39.54 493.76 55.13 504.248c13.075 8.805 26.98 16.347 40.55 24.412 6.182 3.66 12.688 6.812 18.617 10.822 14.643 9.876 25.375 23.077 32.836 39.144 11.76 25.34 7.524 48.642-15.058 65.186-29.728 21.807-69.34 28.44-105.988 9.696C8.542 644.533.9 626.655 0 606.75c-.35-7.975 8.227-16.193 16.788-16.508 6.848-.243 13.967 5.037 15.76 12.147.685 2.747.045 5.793.658 8.57 3.523 16.012 10.02 22.455 25.168 24.5 17.986 2.415 34.233-2.884 48.615-13.22 14.354-10.317 16.95-32.367 5.108-45.992-6.47-7.443-14.454-13.922-22.717-19.374-14.363-9.525-29.483-17.878-44.26-26.772-4.903-2.956-10.102-5.578-14.5-9.182-33.584-27.637-27.23-77.982 12.597-95.608 11.606-5.137 24.672-6.966 30.674-8.606zM766.87 570.74c-11.336 16.77-18.995 33.55-25.564 51.004-3.965 10.507-14.084 13.742-24.456 8.48-5.497-2.785-8.804-7.498-8.074-13.797.487-4.19 1.83-8.38 3.424-12.318 16.67-41.236 33.332-82.47 50.318-123.57 4.92-11.913 10.525-23.582 16.382-35.08 5.965-11.687 16.598-14.94 28.926-14.535 7.732.26 14.075 3.27 17.824 10.01 4.154 7.498 8.11 15.203 11.21 23.177 12.534 32.242 28.808 62.483 46.605 92.12 10.273 17.12 18.356 35.603 26.6 53.84 1.28 2.812-.927 8.47-3.288 11.355-3.776 4.614-9.624 6.037-15.57 4.01-8.75-2.992-14.464-9.453-17.51-17.806-4.938-13.552-10.01-26.86-22.537-37.927-27.214-1.638-55.572.462-84.29 1.038zm13.535-30.87c34.017 3.73 34.017 3.73 52.535-7.2-7.524-15.194-14.976-30.585-22.852-45.76-1.01-1.936-4.172-2.765-8.02-5.135-11.84 16.544-17.5 35.16-21.663 58.094zm1076.4-124.327c35.215-.937 64.006 27.51 62.528 62.43-.216 5.334-2.217 11.452-9.263 12.723-6.39 1.162-11.237-2.064-14.733-6.722-2.505-3.36-3.794-7.66-5.443-11.633-2.2-5.298-3.2-11.488-6.596-15.804-3.226-4.082-8.705-8.398-13.544-8.867-21.6-2.074-39.207 6.478-52.904 23.194-3.93 4.785-2.46 16.842 3.064 19.275 15.733 6.92 31.782 13.146 47.66 19.76 9.236 3.857 18.5 7.695 27.493 12.093 3.794 1.865 7.11 4.91 10.282 7.813 21.86 20.068 19.04 55.3-6.94 69.17-33.314 17.814-68.016 22.42-103.312 4.225-16.968-8.73-25.168-23.085-27.033-41.396-.613-6.055 2.442-10.984 8.254-13.778 5.27-2.568 12.578-1.307 15.48 3.47 3.685 6.072 6.55 12.615 10.038 18.832 5.398 9.606 14.156 14.066 24.744 15.103 17.743 1.722 34.125-3.468 49.65-11.227 9.228-4.614 10.23-18.04 3.236-26.15-5.875-6.83-13.165-10.4-21.573-13.363-14.877-5.226-29.367-11.633-43.83-17.95-12.228-5.335-21.068-14.958-29.106-25.204-8.48-10.804-8.02-30.115.458-40.29 16.663-19.978 46.778-35.045 71.387-35.703z" fill="#fff"/></svg>