<svg xmlns="http://www.w3.org/2000/svg" viewBox="-0.003 282.257 1920.024 515.485" enable-background="new -0.003 282.257 1920.024 515.485"><path d="M1160.9 659.586c-2.725 12.814-5.463 23.29-7.11 33.936-2.69 17.476-.86 34.546 6.493 50.863 2.812 6.248 9.135 9.02 16.128 6.383 19.34-7.27 37.325-16.704 54.043-29.206 23.622-17.66 43.186-39.364 63.793-60.045 8.403-8.443 16.277-17.415 24.456-26.082 9.65-10.22 18.547-20.77 25.798-33.096 11.052-18.778 25.953-34.594 44.44-46.61 4.52-2.94 9.228-5.623 14.053-8.036 20.682-10.34 41.126-12.95 61.09 1.972 1.456 1.084 3.882.86 5.874 1.254 7.17-3.205 6.146-10.91 9.053-16.467 2.263-4.317 8.51-5.99 14.23-3.83 5.74 2.156 10.564 7.61 9.54 11.792-2.54 10.483-5.027 21.027-8.49 31.22-8.023 23.574-16.65 46.94-24.944 70.426-5.787 16.373-10.788 32.954-10.198 50.587.102 3.117 1.084 6.424 2.528 9.19.793 1.524 3.395 2.94 5.177 2.926 3.15-.027 6.587-.59 9.385-1.965 16.724-8.22 31.22-19.516 43.464-33.51 9.256-10.584 17.99-21.63 27.282-32.87 7.135-41.737 24.802-80.342 37.48-120.546 2.006-6.356 9.08-9.277 15.87-7.102 4.46 1.423 8.03 4.466 8.07 9.053.055 6.39-.277 13.112-2.174 19.136-4.547 14.44-10.307 28.487-15.16 42.832-2.357 6.96-7.954 13.14-5.413 22.613 2.46-1.606 4.92-2.67 6.66-4.418 22.153-22.226 43.797-44.982 66.477-66.652 9.29-8.877 20.546-15.796 31.334-22.972 6.363-4.228 15.274-2.155 20.736 3.55 10.327 10.803 14.698 23.74 13.695 38.552-.28 4.1-3.545 8.138.385 13.03 2.487-1.178 5.814-1.83 7.745-3.828 9.02-9.365 17.307-19.435 26.502-28.603 11.48-11.438 22.823-23.14 38.347-29.545 13.403-5.524 25.24-2.488 34.58 9.012 11.83 14.583 15.097 30.948 10.238 48.756-2.56 9.365-6.065 18.54-9.914 27.47-8.132 18.9-17.036 37.46-25.1 56.38-5.516 12.93-10.99 25.994-14.922 39.452-3.11 10.68-1.77 21.454 7.34 29.18 9.987-.11 17.28-4.548 24.015-10.287 21.46-18.276 41.946-37.56 60.343-58.98 4.886-5.686 10.05-11.135 14.44-15.973 11.304-1.592 17.6 3.056 21.462 11.533-.61 2.426-.55 4.9-1.72 6.43-17.728 23.373-37.705 44.752-59.884 63.868-10.578 9.122-22.6 16.657-34.397 24.226-8.646 5.543-18.898 5.685-28.365 3.368-10.686-2.616-19.59-8.53-24.408-19.523-8.26-18.824-9.412-37.872-1.51-56.77 8.76-20.967 18.634-41.465 27.897-62.228 5.28-11.852 10.436-23.778 15.416-35.76 3.375-8.13 4.96-16.71 3.368-25.43-.495-2.705-2.548-6.256-4.81-7.21-2.53-1.065-7.02-.733-9.08.94-8.35 6.804-16.48 13.98-23.99 21.712-13.572 13.973-26.766 28.318-39.89 42.725-8.742 9.6-17.376 19.34-25.534 29.436-17.246 21.366-30.128 44.907-34.6 72.453-.69 4.24-2.202 8.368-3.585 12.474-4.148 12.347-10.39 13.715-26.164 4.804 0-5.584-1.51-12.387.244-18.208 9.975-33.143 20.058-66.273 31.476-98.935 5.36-15.32 10.78-30.54 14.393-46.357.412-1.802-.855-3.978-1.336-5.984-1.91-.142-4.628-1.18-5.604-.285-17.646 15.964-35.48 31.767-52.38 48.497-9.163 9.074-16.698 19.814-24.884 29.863-7.522 9.236-14.745 18.723-22.437 27.81-13.432 15.904-24.952 32.662-27.757 54.048-.407 3.104-2.33 6.024-3.652 8.985-2.77 6.207-10.272 9.202-16.228 5.672-5.4-3.205-10.124-7.542-15.87-11.94-3.26 1.626-7.237 3.307-10.903 5.51-5.558 3.347-10.972 6.958-16.332 10.63-28.48 19.55-54.502-1.036-63.196-22.334-1.206-2.96-1.125-6.416-2.128-9.48-.603-1.842-2.14-3.387-3.646-5.63-2.683 1.43-5.93 2.372-8.104 4.425-11.784 11.174-23.236 22.708-34.973 33.922-5.468 5.225-10.902 10.686-17.184 14.786-4.296 2.805-9.988 4.703-15.098 4.81-17.293.347-33.74-12.996-37.975-29.734-2.1-8.255-1.39-17.32-7.5-25.35-2.583 1.415-5.808 2.215-7.502 4.275-17.34 21.122-38.645 37.75-59.983 54.495-16.575 13.017-36.016 19.767-55.268 26.767-13.472 4.906-34.533-4.58-42.11-18.018-10.855-19.26-15.85-40.192-15.307-62.31.834-34.376 11.357-66.15 28.196-95.628 16.73-29.28 42.636-48.498 73.563-61.04 8.626-3.498 17.036-1.966 24.442 3.956 19.91 15.945 22.484 34.153 6.316 53.147-15.578 18.283-33.976 33.4-55.918 43.72-13.665 6.463-27.42 12.663-43.223 19.92zm184.234 57.85c2.4-.772 5.895-.955 8.037-2.744 20.6-17.253 40.896-34.898 57.756-55.986 5.387-6.736 11.08-12.834 17.517-18.655 11.154-10.096 19.584-22.578 25.777-36.585 4.242-9.61 4.222-18.486-.068-27.92-4.79-10.523-12.47-14.06-23.65-10-17.49 6.362-32.344 16.588-45.17 30.113-22.105 23.33-33.38 52.266-42.767 82.096-2.562 8.125-3.85 16.792-4.5 25.296-.29 3.883 2.31 8.044 3.83 11.98.325.84 1.674 1.28 3.24 2.406zm-165.52-97.39c15.37-1.68 24.87-8.796 33.937-15.958 10.945-8.66 21.638-17.822 29.153-29.952 1.558-2.52.522-7.806-1.924-8.518-1.932-.55-4.4-1.56-5.923-.854-14.82 6.925-27.803 16.568-38.85 28.55-6.492 7.033-13.837 13.782-16.392 26.732zm-580.523 24.212c-12.786 17.015-18.946 36.315-22.002 56.86-1.823 12.197 1.186 23.697 5.984 34.675 2.765 6.35 8.586 10.022 15.457 10.198 5.278.143 10.916-.54 15.856-2.33 21.76-7.888 40.807-19.875 55.044-38.605 3.273-4.31 6.553-8.62 9.955-12.828 3.53-4.37 8.098-7.935 13.73-7.522 8.124.603 14.21 4.71 15.707 13.492-17.144 32.337-45.646 56.542-75.617 67.2-35.434 12.605-67.615-5.542-77.786-33.264-1.444-3.91-3.22-7.698-4.446-10.632-6.173-2.147-9.8.326-13.03 3.193-12.937 11.5-25.568 23.358-38.653 34.688-12.488 10.816-26.854 17.816-43.273 21.042-24.334 4.784-43.924-11.737-41.166-36.037 1.336-11.777 3.85-23.318 8.553-34.526 11.73-27.913 22.7-56.143 33.658-84.367 4.67-12.048 8.736-24.347 12.734-36.64 1.342-4.14 1.05-8.53-3.002-13.288-3.307.983-7.664 1.382-11.025 3.43-18.635 11.316-34.62 25.878-49.806 41.416-8.3 8.505-16.486 17.2-25.45 24.98-15.973 13.857-26.95 30.913-33.923 50.59-6.864 19.368-13.024 38.985-19.68 58.427-2.106 6.12-4.668 12.096-7.317 18.012-1.985 4.437-8.708 6.464-14.095 4.614-6.797-2.338-11.37-9.23-9.392-14.942 10.964-31.7 21.29-63.65 33.32-94.944 19.827-51.527 37.703-103.644 54.013-156.378 9.582-30.975 21.257-61.312 32.032-91.92 1.443-4.074 2.954-8.153 4.723-12.09 3.39-7.535 11.54-8.18 18.622-1.342 1.47 1.416 2.08 3.72 3.415 6.24-4.364 22.966-14.596 44.61-21.65 67.256-10.93 35.108-22.41 70.054-33.496 105.108-1.287 4.04-2.344 8.41 1.153 12.448 9.866-2.392 15.68-10.808 23.256-16.548 12.95-9.82 25.593-20.1 40.393-27.01 6.763-3.166 14.068-5.64 21.4-7.048 9.297-1.796 20.207 6.39 21.698 15.518 2.65 16.182 3.26 32.2-3.075 47.943-6.458 16.046-12.258 32.364-18.405 48.54-10.002 26.278-20.24 52.475-29.918 78.876-1.775 4.82-1.694 10.43-1.72 15.675-.008 1.26 2.832 3.137 4.66 3.625 1.892.5 4.528.29 6.174-.705 9.223-5.604 18.825-10.822 27.22-17.524 18.61-14.866 36.546-30.567 51.55-49.277 3.374-4.208 6.64-8.72 10.8-12.042 12.334-9.83 18.873-23.18 25.27-37.12 6.742-14.705 15.206-28.623 22.877-42.894 9.446-17.55 23.71-30.86 39.1-42.82 7.556-5.875 16.48-10.38 25.378-14.054 11.5-4.737 23.386-3.334 34.743 1.613 18.838 8.2 25.357 23.96 16.21 42.447-15.946 32.18-42.21 51.35-77.468 57.816-9.463 1.716-19.194 1.858-29.284 2.78zm79.827-79.02c-7.38-4.953-14.59-3.157-21.08.97-15.62 9.9-30.15 26.8-41.62 47.272.548.8.948 2.074 1.673 2.318 1.918.623 4.25 1.606 5.93 1.037 24.17-8.2 43.51-22.362 54.996-45.78.778-1.588.1-3.878.1-5.816zm483.744-243.867c11.467-9.73 14.963-23.933 27.08-29.53 7.65-.06 13.37 2.033 16.384 10.524-1.85 6.065-4.025 13.12-6.248 20.37 11.2 7.942 21.55 1.484 31.578-.42 10.727-2.033 20.654-6.98 28.603-14.65 7.766-7.488 14.786-15.762 22.165-23.73 4.025-2.34 8.18-2.136 12.218.02 5.4 2.872 8.037 8.957 5.963 13.342-8.186 17.28-20.824 30.067-38.042 38.503-15.856 7.77-32.668 11.458-50.137 12.332-8.606.434-17.266.08-26.89.08-3.855 5.226-8.64 9.854-11.146 15.492-5.712 12.84-10.314 26.157-15.335 39.303-8.897 23.256-17.205 46.764-26.794 69.736-15.044 36.016-27.248 72.96-38.246 110.353-13.485 45.822-30.35 90.302-52.11 132.884-11.96 23.385-25.764 45.22-48.593 59.7-5.483 3.476-11.12 6.702-16.806 9.826-44.392 24.408-84.9-3.517-101.307-35.04-8.877-17.057-10.15-35.258-6.64-53.792 3.252-17.178 9.56-33.414 18.593-48.315 9.358-15.45 23.785-24.91 40.8-30.38 11.188-3.597 20.383 1.14 29.145 15.078-2.263 1.816-4.418 5.02-6.953 5.353-22.884 3.003-36.66 16.535-45.38 36.993-6.845 16.04-13.154 31.978-12.144 49.95 1.064 18.946 10.822 32.58 25.764 42.86 7.53 5.19 16.358 5.36 25.032 2.865 22.552-6.492 41.498-18.54 55.35-37.69 5.705-7.867 10.943-16.202 15.38-24.842 15.824-30.88 29.66-62.64 40.226-95.736 7.576-23.724 14.48-47.678 22.518-71.247 8.043-23.568 16.98-46.818 25.777-70.122 10.693-28.35 21.556-56.643 32.54-84.88 3.924-10.083 8.53-19.91 12.638-29.924 1.56-3.802 2.582-7.813 3.944-12.008-3.856-1.863-6.593-3.923-9.616-4.54-34.016-6.932-68.27-13.275-103.1-10.38-41.947 3.49-80.267 16.77-112.096 45.963-14.373 13.174-22.09 29.187-24.856 47.97-4.14 28.123 15.714 44.97 37.52 47.998 19.34 2.683 38.91 1.355 56.895-8.694 11.317-6.336 23.168-11.723 34.85-17.395 6.168-2.996 12.476-3.003 18.86-.347 3.903 1.62 9.026 7 7.928 9.33-1.3 2.745-2.967 6.066-5.413 7.4-15.206 8.302-30.534 16.434-46.154 23.915-5.712 2.73-12.258 4.195-18.58 5.096-8.553 1.22-17.287 1.138-25.9 1.965-24.117 2.33-44.155-5.876-62.817-21.035-17.774-14.447-24.564-32.77-23.35-54.326 1.192-21.116 8.937-39.494 24.733-54.862 40.467-39.384 89.44-55.6 144.722-54.902 35.806.454 71.294 4.764 106.335 12.34 3.13.67 6.39.737 11.114 1.245zm-810.445 11.82c3.923 3.252 5.34 5.346 7.176 5.8 26.402 6.573 53.162 10.307 80.423 8.796 30.31-1.694 57.403-10.422 76.735-35.888 2.548-3.36 6.207-5.916 9.514-8.647 2.33-1.923 9.94-.84 11.764 2.278 1.43 2.42 2.453 6.33 1.498 8.7-5.875 14.47-15.762 25.56-29.335 33.585-31.267 18.48-65.305 22.2-100.42 18.283-19.326-2.148-38.368-6.654-57.613-9.636-5.136-.793-10.537.13-15.62.257-10.87 13.742-18.27 28.108-23.595 43.464-10.3 29.654-20.593 59.32-30.073 89.24-12.422 39.193-23.576 78.8-36.24 117.92-5.978 18.494-13.567 36.546-21.49 54.32-18.776 42.176-45.617 78.823-80.712 108.652-28.867 24.517-61.888 34.986-99.62 21.48C16.3 781.663-1.063 756.78.05 727.215.59 712.89 3.572 699.268 11.934 687.3c3.246-4.634 7.76-7.69 13.54-7.724 7.65-.04 15.51.014 18.722 9.216-5.618 10.307-12.252 20.214-16.643 31.036-6.776 16.683-2.683 32.235 9.927 44.717 9.602 9.487 21.488 14.38 35.515 11.574 17.26-3.45 33.76-9.29 46.933-21.035 13.702-12.225 27.397-24.923 38.652-39.323 22.05-28.23 40.082-58.907 52.7-92.87 11.716-31.503 21.59-63.528 31.537-95.567 13.166-42.38 26.15-84.826 40.096-126.935 4.046-12.218 11.154-23.412 16.812-35.095 4.113-8.498.224-14.285-9.86-14.705-3.246-.13-6.573-.623-9.744-.136-22.62 3.442-45.407 2.982-68.115 2.29-43.592-1.335-83.227 12.448-121.52 30.954-21.115 10.205-36.592 27.33-46.818 48.153-10.964 22.35-10.32 44.71 22.904 56.435 23.15 8.16 46.616 8.802 69.127-3.673 7.5-4.167 15.43-7.576 22.51-11.012 9.38 5.326 9.38 5.326 13.283 14.962-13.478 12.258-28.562 20.73-47.272 25.147-29.802 7.04-55.634-1.47-80.923-15.05-5.63-3.03-10.903-7.15-15.498-11.636-15.206-14.84-20.973-31.964-13.54-53.133 8.526-24.32 22.153-44.628 43.41-59.163 8.87-6.058 18.798-10.652 28.522-15.342 45.807-22.084 94.15-31.768 144.898-28.047 9.765.712 19.286.562 29.023.115 15.078-.705 30.257.732 45.396 1.2 4.276.134 8.552.02 13.858.02 6.75-8.126 13.546-16.454 20.52-24.633 2.933-3.442 6.877-4.974 11.465-5.042 4.37-.06 5.57.69 12.19 9.372-3.458 6.365-7.01 12.897-11.325 20.82z" fill="#fff"/></svg>