<svg xmlns="http://www.w3.org/2000/svg" viewBox="0 0 1920 1080" enable-background="new 0 0 1920 1080"><path d="M1043.147 583.748c17.47-6.11 33.23-12.785 49.632-17.13 36.408-9.64 73.447 15.718 78.497 53.763 1.06 7.96-.278 17.644-4.098 24.555-7.35 13.31-15.89 26.523-26.363 37.468-36.804 38.495-76.348 73.694-124.31 90.684-7.394 9.66-4.848 15.834-1.82 22.083 3.745 7.682 6.73 15.77 11.03 23.1 15.878 27.078 28.482 31.967 59.476 26.36 19.012-3.444 36.57-9.542 50.53-23.023 25.807-24.93 51.805-49.75 76.113-76.09 8.976-9.716 14.615-23.132 19.665-35.714 12.83-31.99 31.113-60.888 49.43-89.72 19.087-30.065 47.15-48.574 80.766-59.733 19.226-6.387 37.222-3.36 54.96 3.927 15.257 6.28 31.915 26.95 24.47 50.65-7.394 23.515-19.26 44.582-38.56 59.367-34.408 26.34-71.052 48.38-118.18 36.023-21.71 23.655-25.72 51.922-25.25 81.3.106 6.55 3.22 13.3 5.97 19.505 10.944 24.565 33.658 35.756 58.875 27.84 12.925-4.056 25.924-9.416 37.223-16.745 21.494-13.93 42.87-28.438 62.32-45.02 28.59-24.363 55.464-50.757 85.325-78.37 29.647-73.503 52.243-152.065 71.18-230.114-5.168-8.57-11.78-9.683-18.627-9.65-29.186.14-58.05-2.964-86.682-8.345-4.847-.91-9.47-3.263-14.07-5.232-5.648-2.43-6.846-12.85-2.78-17.418 6.065-6.837 13.694-10.645 22.413-10.72 13.642-.118 27.326.963 40.978 1.67 23.848 1.25 47.717 3.08 73.63-1.22 14.947-22.287 22.06-48.51 29.155-74.637 5.852-21.557 13.395-42.313 25.367-61.272 4.162-6.57 15.064-9.126 22.917-5.574 5.842 2.653 11.876 11.202 10.677 15.984-2.493 9.93-5.07 19.868-8.185 29.615-8.774 27.453-17.055 55.014-22.78 81.975 6.816 7.147 13.578 6.355 20.425 6.462 22.18.342 44.37.78 66.515 2.065 8.816.503 16.016 5.863 20.906 13.31 1.626 2.492 2.632 6.46 1.872 9.168-.802 2.846-3.648 6.13-6.398 7.2-4.633 1.808-9.96 3.028-14.87 2.718-32.782-2.043-64.655 5.21-96.88 8.892-3.156.353-6.056 2.846-9.094 4.344-7.5 5.542-8.923 14.112-11.394 22.275-23.377 76.873-47.696 153.477-69.95 230.68-10.827 37.565-21.73 75.62-18.937 114.62 6.74 9.96 14.925 9.264 23.174 5.498 21.942-10.003 42.645-22.21 58.8-40.378 27.25-30.663 54.51-61.37 80.456-93.145 29.198-35.756 56.876-72.742 85.324-109.12 20.242-25.858 45.48-46.465 71.865-65.444 10.89-7.83 24.03-12.848 36.697-17.76 8.42-3.262 16.755.236 23.976 5.522 5.382 3.937 7.265 13.898 3.456 18.284-2.215 2.557-3.927 5.767-6.59 7.682-48.05 34.536-60.545 84.725-60.61 139.75-.02 20.435 3.703 40.838 5.083 61.305 1.51 22.19 2.257 44.336-1.947 66.483-8.27 43.62-35.8 70.26-79.15 75.128-4.976.556-10.283-.064-15.215-1.134-35.627-7.703-63.038-25.592-75.62-61.69-1.658-4.782-4.076-9.34-6.57-13.76-.694-1.24-2.91-1.625-4.364-2.364-7.8-.417-11.81 5.264-16.572 9.886-25.966 25.282-54.714 46.39-89.24 58.652-32.364 11.5-65.114-2.15-74.54-40.934-3.53-14.55-2.996-30.107-4.27-44.732-9.104-1.862-14.39 2.504-19.674 6.858-19.76 16.295-39.115 33.124-59.422 48.723-12.154 9.328-25.282 17.684-38.837 24.853-44.99 23.773-104.818 14.294-138.038-30.096-5.884-7.853-6.954-19.76-19.88-23.645-3.38 1.808-8.3 3.424-11.896 6.558-9.018 7.864-17.577 16.273-26.06 24.725-24.202 24.126-54.148 34.46-87.433 37.864-33.456 3.412-60.856-6.057-79.493-35.158-7.36-11.46-13.93-23.452-20.19-35.553-5.413-10.454-9.885-21.388-15.448-33.606-5.5 4.6-11.223 7.018-12.657 10.988-8.69 24.073-16.563 48.434-24.32 72.817-2.59 8.12-3.745 16.68-6.056 24.885-3.413 12.068-12.347 18.702-21.986 16.936-12.71-2.32-22.436-14.015-20.146-25.323 3.723-18.37 8.195-36.59 12.197-54.907.673-3.124.587-6.43 1.058-12.068-4.825 1.477-9.576 1.68-12.603 4.066-17.45 13.737-34.365 28.138-51.687 42.047-20.264 16.273-43.62 27.197-67.906 35.478-52.67 17.964-94.643-5.36-109.45-59.636-1.337-4.9-2.653-9.81-4.205-14.647-1.273-3.98-9.672-5.52-13.192-2.236-13.705 12.785-26.983 26.063-41.01 38.495-11.468 10.174-23.344 20.027-35.84 28.897-16.177 11.47-34.943 13.213-54.094 10.966-21.386-2.504-38.12-19.033-39.885-40.528-1.83-22.297.128-44.604 6.976-65.938 21.463-66.836 47.162-131.993 78.842-194.72.76-1.51 1.466-3.607 2.76-4.206 4.3-2 9.49-5.562 13.18-4.493 3.788 1.08 9.298 7.457 8.73 10.538-3.38 18.35-6.878 36.91-12.966 54.49-16.22 46.86-34.215 93.102-50.52 139.93-5.563 16.007-8.495 32.964-11.93 49.633-1.005 4.836.31 10.185.75 15.278.48 5.68 9.81 12.047 15.364 10.143 6.366-2.194 13.534-3.756 18.53-7.822 17.205-14.016 34.184-28.416 50.21-43.76 23.442-22.424 46.285-45.48 68.806-68.836 15.428-16.006 28.78-33.413 38.987-53.687 10.7-21.28 24.158-41.255 37.414-61.134 17.043-25.548 41.972-38.633 71.62-45.748 22.424-5.392 51.867 7.97 57.837 37.232 4.215 20.65 1.755 40.88-6.665 60.203-7.544 17.257-16.317 33.755-31.156 45.32-8.688 1.488-14.187-2.727-16.926-9.21-1.808-4.29-2.375-10.315-.813-14.594 5.242-14.39 12.593-28.042 17.343-42.57 3.113-9.534 3.338-20.05 4.46-30.172.675-6.183-8.12-12.645-14.004-11.244-17.332 4.14-31.648 13.138-41.96 27.475-10.957 15.258-22.554 30.44-30.878 47.14-14.486 29.027-27.122 59.006-39.618 88.973-8.056 19.3-10.153 39.618-5.52 60.395 3.498 15.738 18.722 26.202 34.706 22.586 8.25-1.872 16.487-4.536 24.2-8.014 34.644-15.62 65.008-37.478 92.547-63.594 24.748-23.474 46.852-49.975 77.108-67.286 14.283-8.174 19.814-22.81 25.164-37.51 24.554-67.52 46.005-136.058 63.926-205.56 18.37-71.265 43.052-140.433 65.467-210.362 2.493-7.79 8.046-15 13.524-21.302 4.696-5.403 11.843-5.852 18.936-3.702 5.21 1.594 12.892 11.405 11.726 15.44-4.3 14.774-8.442 29.624-13.352 44.196-23.976 71.308-46.166 143.14-63.252 216.472-3.873 16.605-8.42 33.08-11.576 49.814-.694 3.726 3.105 8.348 4.945 12.852zm677.564 157.114c0 10.314-.416 22.05.12 33.723.534 11.812 1.518 23.645 3.252 35.317 1.295 8.74 6.837 15.29 13.92 20.574 27.955 20.83 65.36 6.965 69.97-27.603 3.36-25.153 3.242-50.884 3.103-76.337-.15-27.207-2.022-54.404-3.5-81.58-.138-2.61-2.75-5.08-4.236-7.66-24.994 20.703-42.123 42.133-82.63 103.566zm-708.825-86.822c-22.34 50.745-25.463 63.605-19.43 83.1 9.46-3.542 19.516-5.843 28.075-10.775 34.065-19.622 64.215-44.486 90.76-73.363 7.84-8.527 13.5-19.515 18.38-30.182 3.755-8.217 1.434-16.573-7.703-22.125-47.162-3.54-76.648 29.99-110.082 53.345zm290.09 16.894c5.704 7.2 12.444 7.457 19.184 5.713 20.284-5.232 37.06-17.3 52.862-30.085 11.994-9.715 19.782-23.41 23.666-38.677.738-2.942.578-8.046-1.198-9.297-3.755-2.653-9.565-5.756-13.256-4.59-39.693 12.582-67.617 37.767-81.258 76.936zm-796.493-499.31c12.582-11.682 24.608-23.676 37.714-34.332 2.632-2.13 10.175-.492 14.026 1.808 3.702 2.225 5.767 7.425 8.046 11.598.61 1.102-.588 3.22-1.006 4.857-5.745 22.104-5.617 21.045 15.834 22.82 31.166 2.57 61.54-3.134 91.604-8.558 24.982-4.515 49.418-13.277 70.955-28.406 12.54-8.815 26.127-16.25 39.704-23.472 11.126-5.927 19.567-1.55 26.137 10.924-5.242 5.596-10.303 12.38-16.67 17.568-40.794 33.263-87.506 53.44-139.716 59.55-30.534 3.573-61.336 4.708-92.03 6.976-10.122.75-20.243 1.605-30.044 2.397-12.828 15.92-20.103 32.93-26.244 50.8-21.655 63.06-41.704 126.525-55.816 191.8-16.316 75.46-43.395 147.56-71.587 219.135-17.537 44.497-37.03 88.245-56.342 132.025-16.776 38.035-43.085 69.64-70.26 100.55-14.946 16.99-33.38 29.624-53.13 39.788-44.83 23.08-89.262 18.885-132.176-5.776-7.2-4.14-13.705-10.27-19.066-16.7C12.153 887 4.376 846.687 23.066 797.75c11.758-30.77 32.503-56.072 58.16-76.903 6.91-5.617 15.866-6.91 24.393-4.964 8.687 1.98 15.042 7.51 16.68 17.268-.803 7.394-6.09 11.716-12.08 15.16-13.673 7.843-23.934 19.27-33.295 31.574-19.504 25.656-27.09 54.8-24.896 86.78 1.54 22.285 13.03 40.013 30.577 50.99 20.574 12.86 44.55 17.3 69.083 10.292 26.92-7.682 49.943-21.922 69.393-41.95 28.898-29.755 52.168-63.563 68.75-101.448 21.26-48.53 40.828-97.788 61.434-146.597 35.392-83.825 55.88-172.177 78.51-259.812 12.848-49.77 31.347-97.457 49.16-145.463 2.943-7.95 6.784-15.578 1.456-26.352-19.633-6.14-41.35-9.96-63.488-11.426-20.467-1.36-41.01-1.712-61.498-2.932-18.723-1.113-37.51-2.044-56.084-4.397-27.432-3.488-53.89-2.268-81.226 4.13-33.744 7.896-65.37 20.275-95.83 35.702-44.882 22.746-75.63 57.56-85.838 107.29 4.685 20.552 18.016 34.364 30.908 47.748 6.772 7.03 16.83 12.657 26.373 14.98 43.45 10.634 87.155 17.92 131.373 2.674 7.778-2.675 16.69-2.375 25.12-2.696 6.164-.235 14.145 6.098 15.322 11.437 1.21 5.52-3.113 14.593-9.19 16.4-16.295 4.858-32.6 11.727-49.258 13.01-37.66 2.89-75.267-.427-111.836-10.75-36.108-10.208-63.7-31.734-83.526-63.767-12.657-20.435-15.16-41.512-7.06-63.798 14.54-40.025 40.805-70.87 76.036-94.076 24.447-16.09 51.868-25.977 79.397-35.35 47.707-16.23 96.28-22.328 146.394-13.383 13.396 2.396 27.23 3.68 40.817 3.316 44.657-1.177 88.79 2.31 132.624 10.956 8.123 1.602 16.843.233 25.562.233z" fill="#fff"/><path fill="#fff" enable-background="new" d="M667.058 401.224c.118 11.202-11.822 20.927-24.522 19.964-8.292-.63-16.626-9.458-15.706-16.67 1.648-12.923 12.24-24.617 21.943-24.243 9.073.354 18.156 10.785 18.285 20.95z"/></svg>