<svg xmlns="http://www.w3.org/2000/svg" viewBox="41.005 1002.743 1397.55 1080" enable-background="new 41.005 1002.743 1397.55 1080"><path fill="#fff" d="M664.1 1384.238c-16.51 17.153-36.83 36.212-53.343 53.683.317 2.542.635 4.766 1.27 6.99 6.668 26.046 15.876 50.822 17.464 77.505 1.906 30.177-5.714 57.812-26.036 81-11.748 13.34-27.307 20.965-44.136 21.282-26.672.635-49.534-17.153-55.567-40.977-4.762-18.742-2.857-37.164 1.27-55.27 6.35-27.953 18.734-53.047 37.47-74.965 6.984-7.94 13.653-15.882 20.955-23.823l-12.066-43.518c-6.987 5.4-12.702 11.118-17.782 17.153-17.146 19.694-34.292 39.705-51.756 59.4-6.668 7.624-13.336 14.93-20.32 22.236 0 7.306 2.857 16.835 5.08 23.506 6.032 20.646 7.937 38.434 9.525 59.4.635 6.67.952 13.34.952 20.01.634 39.39-6.67 76.87-28.895 110.542-20.64 31.764-62.234 42.565-92.08 30.176-10.48-4.447-19.052-10.8-25.085-20.33-14.923-23.505-17.78-49.234-11.43-75.6 7.937-33.67 24.765-62.893 46.674-89.258 14.288-17.153 29.212-33.988 45.088-49.87 11.113-11.118 11.748-7.624 7.303-26.365-2.858-12.07-6.35-27.317-9.208-39.07-2.223 3.493-3.176 4.764-3.81 6.352-1.588 3.494-3.493 6.988-5.08 10.164-18.416 40.025-40.643 77.824-65.727 114.037-14.606 20.647-23.497 32.718-41.278 53.047l-30.482 33.67c-20.004 19.06-29.847 32.718-58.74 54-18.1 13.34-33.66 24.14-53.98 25.73-30.8 2.54-58.424-9.53-77.158-33.036-18.416-23.823-26.354-51.46-29.847-81-3.493-28.588-1.905-36.53 0-65.118.953-10.482 3.493-30.176 6.985-51.46 3.493-19.693 12.383-44.152 18.733-63.21 15.56-41.93 31.435-73.694 53.66-112.13l22.227-36.847c4.762-7.624 10.16-15.247 15.56-22.236 9.207-12.07 19.368-23.506 28.258-35.894 10.478-13.024 20.956-23.506 32.07-34.624 10.478-10.483 15.876-15.883 27.307-25.095 13.654-10.8 32.704-22.87 49.85-25.73 24.45-4.13 45.724 4.448 61.918 24.777 10.478 13.976 13.018 22.553 14.606 40.024 1.27 14.93-2.224 33.988-6.034 48.282-5.716 21.282-10.796 37.8-20.64 57.494-8.89 17.47-19.05 34.306-31.434 49.553-2.54 3.494-5.716 6.67-8.89 9.53-7.62 6.67-19.05 6.034-26.037-1.272-1.588-1.588-3.175-4.13-2.857-6.988.317-4.13.952-7.94 2.54-11.753 2.54-6.67 5.398-13.34 8.573-19.694 12.067-25.094 22.227-50.823 30.483-77.19 4.445-14.293 7.938-28.905 3.81-43.834-4.445-16.2-17.146-25.412-33.34-20.647-12.7 3.812-26.99 13.66-36.515 22.553-13.336 13.024-22.86 23.19-35.563 39.706-2.223 2.54-4.445 5.083-6.033 7.94-30.482 44.154-57.79 90.212-82.873 137.224-8.89 16.518-15.242 29.86-22.862 47.965-2.54 6.67-8.573 20.012-13.336 35.26-9.526 30.81-11.748 52.728-11.748 85.446 0 29.86 2.54 64.165 11.113 86.4 6.985 24.142 36.515 39.39 60.012 32.4 13.335-4.13 26.036-9.846 36.83-18.422 24.45-19.376 47.947-39.388 66.998-64.482 16.194-21.282 32.704-42.247 46.993-64.8 27.943-42.882 54.297-86.717 80.334-130.552 3.175-5.4 6.033-10.8 8.573-16.518 12.066-23.823 27.942-45.742 40.96-68.93 4.445-7.623 10.478-14.928 17.78-19.693 10.48-6.988 22.862-.953 30.8 4.765 2.858 2.223 5.08 6.988 4.445 10.482-.635 3.812-1.588 6.035-3.493 9.212-4.13 7.624-8.574 14.612-13.337 21.918-5.08 7.94-11.113 15.565-15.876 23.823-12.066 20.647-13.97 42.247-6.985 64.8 1.588 5.083 3.493 9.847 5.716 15.882 3.493-3.177 6.668-5.4 9.208-7.94 15.24-15.248 28.577-32.084 41.913-48.918 10.477-13.024 20.955-26.047 32.386-38.435 13.018-13.66 22.86-29.223 32.387-45.424 5.398-9.53 10.795-19.06 16.194-28.906.953-1.588 1.905-3.494 2.857-4.764 9.526-13.66 25.72-15.247 38.42.635 1.588 1.906 1.905 5.4 1.588 8.258 0 6.354-5.716 13.342-9.208 18.424-4.445 6.67-6.668 10.8-11.43 19.376-7.304 13.976-12.067 22.87-17.782 34.94-3.493 7.942-1.588 17.472.953 26.048 1.588 5.4 3.493 12.388 6.35 19.694 6.985-6.67 13.336-13.66 18.733-18.742 13.018-12.706 26.037-25.412 39.373-37.8 20.005-18.423 35.564-39.706 47.947-63.847 5.08-10.164 10.16-18.423 15.56-28.906 9.525-16.518 17.463-24.777 28.893-33.353 19.37-14.294 41.278-8.894 55.567 1.588 3.493 2.54 6.668 5.4 8.89 8.894 6.034 9.53 7.622 20.647 7.304 31.764-.952 24.777-6.35 43.2-16.51 65.753-6.985 15.565-19.687 15.565-31.117 5.4-2.858-2.54-3.81-5.718-3.176-8.894.953-4.448 2.54-9.213 4.445-13.342 4.445-9.53 7.303-19.694 8.573-30.177.953-6.352 0-12.387-3.176-18.104-2.858-5.4-14.924-8.577-20.322-6.035-4.128 1.59-8.255 5.084-11.113 7.942-8.89 9.212-15.876 29.223-20.004 40.977-10.16 26.682-13.335 44.152-21.273 74.646-4.445 15.882-5.716 32.083-5.08 48.282.953 16.835 17.464 28.588 33.975 25.412 8.573-1.588 16.194-5.083 23.18-10.482 17.145-13.024 33.02-27.318 46.674-44.47 8.573-10.802 31.117-37.165 31.117-37.165s-.317-1.27-.635-5.718c-.953-22.553 5.08-41.294 11.748-61.94 3.493-10.8 7.938-23.824 12.7-34.307 17.465-33.67 35.88-47.965 52.392-58.13 7.938-5.083 17.146-6.353 26.037-6.353 4.445 0 9.843.953 13.654 3.494 6.032 4.13 12.065 6.67 19.686 7.305 8.573.953 15.876 5.4 21.91 12.705 10.794 13.66 15.875 26.683 14.287 44.153-.317 2.223 0 4.447 0 8.258 4.763-3.176 8.573-5.082 11.43-7.94 17.465-16.2 36.833-30.494 52.392-48.6 4.763-5.4 10.16-10.164 15.56-14.93 2.857-2.54 6.032-4.764 9.525-6.67 12.066-6.035 25.402.635 26.672 13.976.953 5.083-4.445 16.836-6.668 23.506 5.715-5.083 17.146-14.612 20.957-18.105 11.432-11.118 24.45-20.012 38.42-27.636 6.35-3.493 13.337-5.082 20.64-5.082 10.796 0 17.78 5.717 20.64 16.2 2.54 9.53.952 19.06-1.906 28.27-2.222 7.624-5.08 15.248-7.938 22.87l-19.05 50.506c-1.27 3.494-8.257 27.953-9.844 34.306-1.905 10.164-2.857 12.07-4.445 22.235-.953 5.083-2.858 11.435.635 14.612 3.176 2.54 7.62.953 11.113-1.27 3.176-2.223 6.35-4.447 8.89-6.988 9.21-8.895 18.417-18.106 27.626-27.318 5.082-5.083 13.02-13.34 13.02-13.34s9.842-42.883 20.003-77.19c6.985-23.188 13.02-39.705 23.497-63.21 5.08-11.754 23.814-47.013 30.165-58.13 20.32-36.21 41.913-67.34 71.125-98.47 6.668-6.99 13.97-14.613 23.18-17.79 3.492-1.27 9.207-1.905 13.017-2.223 12.066 0 19.37 7.94 21.91 17.787 2.222 8.577.316 18.74-1.27 27.317-5.4 27.317-9.527 44.788-19.37 70.518-11.113 29.224-39.69 74.965-61.6 98.153-17.78 18.742-20.955 23.506-39.69 40.977-3.493 3.177-6.985 6.67-10.796 10.165 8.574 5.083 16.195 8.894 22.545 14.612 6.033 5.717 12.383 12.704 16.51 20.964 10.48-5.718 20.64-12.07 28.895-20.33 6.033-6.034 11.113-13.34 16.51-19.693 4.763-5.4 9.527-10.8 14.924-15.564 5.08-4.447 10.478-3.81 15.56.317 10.16 7.624 8.254 19.06 3.81 28.906-2.86 6.352-6.35 12.705-10.797 18.422-8.255 10.8-17.78 19.376-29.212 27.317-10.478 6.987-19.37 13.023-30.8 18.104-4.127 2.223-6.667 3.177-6.667 3.177s-2.54 22.87-2.858 30.813c-2.857 45.105-18.416 91.164-38.737 131.188-9.843 19.06-16.51 32.72-29.53 50.19-3.493 4.447-7.303 8.894-11.43 12.705-16.195 15.882-40.96 7.306-48.264-11.435-3.494-9.212-6.35-20.012-6.986-29.86-1.27-18.422-1.588-34.94-.953-53.68.318-12.39 2.224-24.778 3.494-37.165 2.222-20.965 5.715-44.788 8.255-67.024-2.86 2.542-5.082 5.084-8.574 8.895-6.033 6.035-8.89 8.577-16.51 14.93-6.67 5.082-12.384 8.257-19.37 11.117-13.336 5.718-30.482 1.588-37.785-15.882-3.492-8.894-5.08-18.423-3.81-28.27 4.446-29.86 12.384-58.765 24.133-86.718 3.493-7.94 6.668-15.882 9.526-23.823 1.27-3.178 2.222-6.354 2.54-9.53.952-7.306-2.54-10.164-9.21-7.624-3.175 1.27-6.032 2.86-8.572 4.765-16.51 10.8-49.534 38.12-49.534 38.12s-3.176 8.258-4.445 11.117c-13.02 28.27-21.275 52.412-31.118 82.59-3.81 11.752-7.938 23.505-12.7 34.94-5.082 12.07-15.242 15.882-26.99 10.482-6.35-2.86-10.796-5.72-9.208-13.025 2.857-12.388 6.35-23.188 11.75-36.847 12.382-30.176 22.225-57.176 32.07-85.447.95-2.858 3.492-11.117 4.444-15.564-6.033 5.4-13.018 11.753-16.828 15.882-15.56 17.153-33.022 31.764-54.93 40.66-3.81 1.587-6.034 4.13-7.622 7.94-2.858 7.624-5.715 15.247-8.89 22.553-9.21 23.507-23.18 43.836-40.01 62.26-10.477 11.118-23.178 19.694-38.102 24.776-16.828 5.718-31.752 2.86-45.088-9.53-6.668-6.352-11.43-13.023-15.56-23.505-2.856 2.542-5.715 5.084-7.62 6.67-22.226 22.87-45.088 45.424-69.538 66.39-5.08 4.446-10.795 7.94-16.51 11.434-21.593 13.66-50.804 7.306-69.22-10.165-9.21-8.895-12.384-24.777-13.972-36.848-1.905-14.294-.953-24.777 1.27-39.388 1.588-7.94 2.54-17.47 3.81-25.412l-2.537 6.676zm-231.79 133.095c-4.445 4.764-7.938 8.577-9.843 11.118-6.033 7.307-12.066 14.93-18.416 21.6-11.112 12.072-20.003 25.413-28.893 38.754-17.464 26.683-21.592 55.59-14.288 86.083l.634 2.86c5.08 17.787 18.1 23.505 35.88 17.152 12.066-4.13 21.592-12.707 27.942-23.507 9.526-15.882 16.51-40.66 16.828-59.083 1.27-21.6 0-24.776-1.905-52.73-.637-4.13-4.765-31.448-7.94-42.247zm516.608-196.942c-20.64-11.434-30.165-27-29.212-48.28.317-7.942.953-14.613 2.858-23.507-3.493 2.54-6.35 5.4-8.573 7.624l-10.16 11.435c-21.592 25.412-31.435 53.365-33.658 85.764-.953 10.165.635 20.965 2.54 31.13 3.175 15.248 13.018 20.33 27.625 15.882 5.08-1.588 9.526-4.13 13.654-7.624 25.403-18.106 43.82-68.294 43.82-68.294l-8.892-4.13zm304.503 84.178l-5.08 38.118c-3.492 26.365-4.762 47.012-2.222 73.694.317 1.906.317 11.118 4.445 11.753 4.763.953 6.985-5.718 8.573-8.577 5.398-10.164 10.16-19.694 14.606-29.86 5.08-11.752 9.208-24.14 13.97-35.893 8.574-20.647 14.924-42.247 19.052-64.164 2.54-13.025 6.033-25.413 6.668-41.93-27.942-7.94-45.406-21.282-45.406-21.282s-12.064 58.128-14.605 78.14zm-672.828 62.894c-1.27.635-8.573 8.894-9.526 9.847-22.544 22.87-33.975 49.552-36.832 81.317-.635 7.624.953 14.612 4.128 21.6 3.81 7.624 15.56 11.435 21.91 9.847 8.254-2.54 14.287-6.67 19.05-14.294 7.62-11.753 13.654-27.317 14.288-41.612 2.54-35.26-13.018-66.706-13.018-66.706zm710.932-235.058s18.416-14.294 18.734-14.612c19.687-17.788 32.387-35.26 47.31-57.176 16.195-27.636 35.246-60.988 45.407-91.482.953-2.54 6.668-17.47-.635-21.282-7.938-3.494-17.464 12.07-19.37 14.612-3.175 4.13-14.287 19.694-17.145 23.823-7.938 12.388-18.416 27.317-25.402 40.024-14.606 27-13.654 23.824-27.307 51.142-8.255 16.835-11.43 24.46-16.51 36.21-6.034 15.882-5.082 18.742-5.082 18.742zm-319.11 52.093c3.175-6.67 3.493-14.93 2.54-21.918-.317-2.224-.952-4.765-2.222-6.67-2.54-5.084-12.383-5.084-16.51-.954-5.082 5.4-5.4 11.753-2.858 18.742 2.54 6.352 10.16 12.07 19.05 10.8zm182.258 159.46c6.033-.636 10.16-.636 13.97.316 6.67 1.588 10.797 10.8 10.48 17.788 0 4.13-3.494 8.578-7.304 10.165-7.303 3.494-14.288 6.353-22.544 8.894-31.752 8.257-61.282 14.293-93.034 21.917-19.37 4.764-38.737 10.164-58.107 15.882-36.832 10.8-73.348 21.6-109.863 32.717-19.37 5.718-38.103 12.388-57.154 18.74-5.716 1.907-9.526 3.813-27.307 8.895-20.005 6.353-37.15 13.34-57.79 20.965-36.515 16.518-73.348 32.4-109.227 50.506-32.07 16.2-63.187 33.67-93.352 53.047-6.032 3.812-12.7 6.988-19.05 9.847-5.08 2.223-10.16 1.906-14.923-1.588-2.54-1.907-4.445-6.354-2.858-8.578 2.54-3.494 6.032-5.718 9.207-8.258 10.16-7.94 20.64-15.247 31.117-22.87 19.37-14.294 40.325-25.412 60.964-37.482 14.923-8.577 29.847-17.153 45.088-25.094 8.255-4.447 17.146-8.576 25.72-12.705 25.4-12.07 50.802-24.46 76.522-35.577 34.61-15.248 70.172-26.683 106.37-37.8 18.1-5.718 35.245-12.07 53.026-17.788 28.894-9.212 57.472-17.153 86.366-23.506 12.7-2.86 24.132-6.988 36.515-9.847l81.92-20.33c6.986-1.587 13.972-3.81 20.957-5.082 5.4-2.224 10.48-2.86 14.29-3.177zm-624.943 424.08c-5.734 7.167-11.862 14.053-17.123 21.555-12.73 18.148-25 36.623-37.594 54.87-2.705 3.923-5.872 7.54-9.03 11.117-5.49 6.21-11.972 10.992-19.768 14.138-5.51 2.23-11.048 3.178-16.924 3.25-9.586.124-15-4.114-17.608-15.015-.918-3.838-.85-8.35.226-12.138 2.538-8.933 6.848-17.01 13.924-23.446 6.52-5.932 14.228-7.888 22.668-7.365 2.21.13 4.415 1.517 6.446 2.642.632.353.69 1.74 1.25 3.322-2.222.287-4.122.89-5.95.72-10.244-.943-17.98 3.49-23.552 11.54-3.26 4.71-6.397 9.916-7.895 15.363-4.373 15.88 3.413 19.542 15.538 17.193 11.5-2.23 20.825-8.52 27.904-17.71 6.026-7.822 11.48-16.088 17.066-24.243 16.384-23.91 31.83-48.474 50.354-70.88 9.192-11.117 19.345-21.103 31.258-29.265 4.835-3.316 6.26-3.237 11.755 1.38-2.22 2.093-4.465 4.068-6.554 6.2-2.847 2.904-6.007 5.63-8.288 8.946-13.26 19.28-23.628 39.867-27.727 63.208-.994 5.663-2.497 11.23-3.85 17.22 3.508.077 4.45-2.343 5.714-4.043 17.69-23.826 35.61-47.454 55.947-69.134 2.335-2.492 4.852-4.866 6.834-7.612 5.578-7.73 14.068-11.753 21.414-17.206 1.91-1.42 4.795-.6 6.287 1.485 1.29 1.812 1.545 3.734.024 5.637-4.462 5.585-8.956 11.137-13.338 16.78-5.298 6.83-8.853 14.566-11.34 22.786-4.246 14.04-9.087 27.86-14.65 41.437-3.356 8.188-6.925 16.304-9.852 24.65-2.25 6.408-3.797 13.092-5.323 19.73-.406 1.773.405 3.832.726 6.285 5.83-.563 10.11-2.865 13.76-6.638 3.315-3.427 6.856-6.65 10.038-10.196 1.54-1.714 2.886-3.82 3.636-5.99 3.43-9.928 9.672-17.998 16.818-25.362 2.778-2.858 6.413-5.088 10.016-6.88 2.3-1.144 5.29-1.458 7.912-1.282 6.746.45 11.107 6.795 8.877 13.158-1.093 3.113-2.937 6.317-5.31 8.567-6.552 6.206-14.082 10.784-23.565 10.882-1.017.013-2.037.066-3.05.163-.32.026-.62.255-1.81.772-3.03 5.07-4.395 11.242-4.057 17.82.187 3.617 2.34 5.52 5.944 5.697 4.59.235 8.7-1.27 12.676-3.396 10.317-5.507 19.267-12.838 27.898-20.633 4.18-3.766 6.646-8.344 8.18-13.76 4.083-14.432 8.45-28.76 14.23-42.665 6.806-16.382 13.808-32.64 23.264-47.702 2.53-4.028 5.6-7.724 8.51-11.504 2.194-2.852 5.432-4.102 8.738-4.998 4.872-1.315 9.716 1.334 11.34 6.252 1.526 4.61 1.542 8.92-.582 13.786-14.416 33.046-33.17 63.443-55.05 91.97-2.87 3.733-4.325 7.442-4.185 12.144.175 5.866.472 11.622 3.86 16.65 1.232 1.832 3.375 2.852 5.358 1.642 4.04-2.46 8.33-4.833 11.623-8.135 6.978-7.003 13.344-14.615 20.043-21.9 2.39-2.604 3.522-5.697 4.685-8.954 8.616-24.074 17.356-48.107 26.157-72.115 2.932-7.99 6.093-15.904 9.263-23.81 2.075-5.18 3.697-5.37 9.356-.936-6.593 17.638-13.44 35.394-19.862 53.306-6.297 17.56-13.27 34.903-19.115 54.837 2.63-2.61 3.728-3.767 4.894-4.853 4.995-4.637 9.713-9.647 15.114-13.747 3.996-3.04 8.81-5.062 13.41-7.22 6.125-2.87 10.58-.026 13.19 5.703.962 2.113 1.586 4.375 2.532 7.044 3.82-.425 6.5-2.67 9.435-4.094 3.06-1.484 5.922-3.362 8.89-5.036 3.842-2.164 7.555-4.65 11.592-6.356 4.782-2.027 9.85-3.16 14.715.765 1.284-.72 2.42-1.386 3.582-2 6.606-3.494 10.29-2.924 15.356 2.32 2.69 2.786 4.504 6.062 4.86 9.915.275 2.943.056 5.938.056 9.254 5.034-.464 7.867-3.656 10.934-6.09 4.266-3.38 8.093-7.317 12.182-10.927 1.513-1.34 3.118-2.674 4.903-3.578 1.906-.968 4.033-.745 5.775.667 1.77 1.425 2.455 3.4 1.445 5.468-2.99 6.115-5.868 12.315-9.31 18.168-4.007 6.827-6.73 14.145-9.466 21.49-1.08 2.897-1.74 5.893-.043 9.05 4.717.34 7.344-3.008 10.025-5.983 5.933-6.6 11.722-13.32 17.523-20.03 7.603-8.79 14.333-18.182 19.452-28.672.147-.3.36-.576.546-.857 1.33-2.034 3.38-2.688 5.253-1.61 2.03 1.172 2.745 2.99 2.066 5.194-.602 1.942-1.487 3.8-2.187 5.722-3.854 10.562-7.73 21.123-11.5 31.72-1.01 2.837-1.993 5.774-.832 9.103 1.02-.236 2.252-.138 2.824-.706 13.6-13.595 24.518-29.147 33.722-46.216-2.054-2.42-4.09-4.663-5.947-7.05-2.65-3.4-3.455-7.41-2.925-11.576 1.252-9.797 6.456-17.193 14.715-22.275 7.214-4.44 14.915-.562 15.47 7.96.258 3.923-.817 8.096-2.037 11.915-1.543 4.84-3.843 9.437-5.704 13.864.91 3.263 3.85 2.937 5.743 4.127 5.044 3.158 6.646 6.31 4.975 11.993-1.05 3.57-2.743 6.97-4.393 10.333-3.606 7.344-7.43 14.577-11.015 21.935-.873 1.78-1.177 3.84-1.687 5.586 1.615 1.93 3.27 1.798 4.72.654 3.743-2.943 7.747-5.69 10.976-9.136 11.925-12.72 23.342-25.852 30.12-42.28.63-1.53 1.447-3.355 2.728-4.14 1.19-.726 3.275-.654 4.664-.124.925.347 1.814 2.106 1.824 3.244.01 1.635-.654 3.33-1.275 4.905-2.124 5.395-4.402 10.724-6.517 16.12-.585 1.497-.797 3.132-1.586 6.35 6.158-4.578 10.675-8.45 14.9-12.68 4.098-4.108 8.144-8.267 12.302-12.316 2.2-2.14 4.438-4.29 6.938-6.037 2.628-1.837 5.635-2.42 8.658-.595 3.164 1.91 3.608 5.042 2.82 8.083-1.013 3.924-2.558 7.743-4.144 11.497-3.576 8.47-7.357 16.847-10.963 25.296-1.35 3.172-2.063 6.48-.808 10.53 1.592-.7 3.24-1.067 4.436-2.008 6.7-5.27 13.434-10.522 19.84-16.133 2.206-1.93 3.798-4.748 5.174-7.41 2.504-4.846 4.52-9.934 6.956-14.82 3.09-6.18 7.184-11.634 12.976-15.55 4.436-2.996 9.283-4.213 14.542-2.2 4.426 1.695 6.142 3.983 5.596 8.555-1.327 11.105-7.36 18.92-17.543 23.295-4.332 1.864-9.006 2.923-14.004 4.5-2.334 6.755-4.85 13.68-2.563 21.692 1.575-.13 2.988.05 4.164-.4 6.116-2.302 11.627-5.624 16.654-9.842 3.652-3.068 7.483-5.945 11.448-8.593 1.22-.818 3.367-1.177 4.668-.674 1.275.498 2.02 2.37 2.935 3.553-6.324 7.037-21.124 18.148-27.92 21.078-.935.406-1.88.812-2.85 1.12-10.937 3.44-15.674.784-18.632-10.38-.173-.654-.458-1.275-.908-2.51-1.73.967-3.488 1.726-4.984 2.837-4.373 3.237-8.47 6.893-13.035 9.83-2.133 1.365-5.157 2.19-7.67 1.968-6.202-.537-8.79-4.01-8.742-10.32.062-8.077 3.135-15.29 6.416-22.425 2.563-5.573 5.302-11.065 7.926-16.61.095-.198-.157-.564-.304-1.028-2.788-.215-3.834 2.262-5.422 3.747-10.96 10.247-21.965 20.47-30.716 32.783-3.357 4.722-6.515 9.587-9.764 14.38-1.076 1.59-2.566 2.218-4.396 1.656-2.108-.655-3.63-1.917-3.48-4.37.08-1.36.23-2.726.532-4.047.533-2.33 1.265-4.604 1.785-6.933.193-.863.033-1.805.033-3.67-4.76 4.566-8.884 8.555-13.042 12.512-3.543 3.374-7.75 5.637-12.51 6.592-7.18 1.446-12.97-4.263-11.358-11.464.96-4.277 2.622-8.47 4.49-12.452 2.746-5.866 6.015-11.477 8.95-17.26 1.383-2.726 2.572-5.558 3.723-8.396.687-1.688.563-3.388-1.094-4.54-2.06-1.432-5.115-1.222-6.426.733-2.854 4.245-5.665 8.534-8.142 13.007-7.19 12.955-16.922 23.943-26.944 34.66-2.23 2.382-5.42 4.154-8.492 5.41-6.364 2.596-11.862-1.556-11.453-8.365.1-1.674.757-3.31.98-4.983.257-1.95.313-3.924.555-7.22-2.193 1.786-3.566 2.66-4.63 3.813-3.93 4.27-7.762 8.626-11.625 12.955-3.01 3.375-6.557 5.932-10.89 7.357-7.198 2.366-13.353-1.33-13.697-8.94-.19-4.324.78-8.784 1.794-13.048.778-3.283 2.367-6.39 3.74-9.51 1.215-2.772 2.63-5.453 3.973-8.213-.79-.275-1.52-.78-1.834-.59-6.13 3.67-12.07 7.58-19.213 9.345-2.393.59-4.557 2.82-6.432 4.69-6.033 6.015-11.828 12.274-17.833 18.324-3.89 3.916-8.466 6.84-13.732 8.658-8.48 2.93-16.193-3.19-16.76-10.104-.22-2.68-.518-5.487.032-8.063 1.556-7.324 3.514-14.57 5.354-21.83.383-1.523.92-3.008 1.776-5.76-7.074 2.432-12.433 5.172-16.814 9.384-1.566 1.505-2.147 4.127-2.938 6.324-3.15 8.756-7.083 17.12-13.998 23.51-3.174 2.93-7.276 4.867-10.986 7.202-.562.36-1.27.51-1.932.667-3.972.928-10.313-.89-12.032-3.91-1.995-3.5-1.84-7.58.266-10.765 2.59-3.91 5.724-7.69 9.343-10.653 7.106-5.808 14.712-11.008 22.008-16.383 1.433-7.226 1.433-7.226-1.182-12.674-8.17 2.27-14.654 7.43-20.145 13.414-8.752 9.535-16.827 19.705-25 29.763-1.668 2.054-2.2 5.023-3.828 7.13-.82 1.06-3.138 1.824-4.378 1.444-1.237-.386-2.804-2.406-2.765-3.662.1-3.31.997-6.6 1.755-10.915-1.777 1.413-2.955 2.29-4.058 3.244-4.11 3.553-7.883 7.594-12.348 10.616-10.943 7.41-20.25 3.832-24.322-8.966-.93-2.91-1.677-5.88-2.63-9.26-3.828 1.118-6.272 4.015-9.258 6.023-6.494 4.368-12.853 8.986-19.62 12.884-3.443 1.988-7.572 3.1-11.532 3.8-7.765 1.373-14.045-1.38-18.426-8.104-.737-1.13-1.546-2.21-2.577-3.682-2.464 2.055-4.793 3.88-6.984 5.854-3.154 2.845-7.08 3.97-10.948 5.33-6.016 2.12-14.3-2.897-14.63-10.228-.365-8.044 1.407-15.69 4.073-23.04 4.997-13.773 10.812-27.245 15.89-40.992 4.11-11.13 7.636-22.47 11.454-33.81-2.654-1.237-3.57.522-4.45 1.542-7.105 8.28-14.344 16.46-21.085 25.035-10.753 13.67-20.922 27.795-31.77 41.38-9.63 12.065-18.674 24.334-23.062 39.415-.513 1.766-1.727 2.917-3.742 2.76-2.07-.163-3.97-1.95-3.88-4.01.083-2.007.348-4.073.974-5.976 2.023-6.148 4.223-12.237 6.402-18.332 5.76-16.114 8.332-33.04 12.607-49.527 1.535-5.924 3.34-11.784 5.11-17.644.683-2.256 2.033-4.395.732-6.828.554.014 1.094.014 1.633.007l-.373-1.13c-.33.463-.673.928-1.013 1.39zm251.42 91.46c4.58 1.36 7.734-.798 10.615-2.976 8.364-6.342 15.78-13.687 22.54-22.228-3.193-3.7-7.965-6.07-8.788-11.065-.75-4.54-.863-9.175-1.3-14.296-1.61.262-3.61-.006-4.655.87-2.556 2.146-5.253 4.48-6.854 7.326-6.204 10.993-10.65 22.687-11.872 35.374-.222 2.262.19 4.59.315 6.997zm-67.45-135.284c-5.692 2.597-8.632 7.338-11.213 12-11.533 20.843-21.835 42.275-29.536 64.87-.736 2.165-1.073 4.46-2.012 8.488 2.172-2.203 3.21-2.955 3.86-3.962 6.992-10.862 14.468-21.458 20.726-32.732 6.913-12.45 12.707-25.532 18.958-38.35 1.542-3.165 2.32-6.37-.782-10.313zm224.237 45.622c-7.27 4.127-10.493 9.49-12.388 15.65-.763 2.472-.586 5.33-.38 7.972.157 2.008 1.174 3.82 4.25 3.91 4.53-7.945 9.432-15.884 8.517-27.532zm-125.506 49.93c.197 1.414.21 2.447.494 3.396.75 2.453 2.537 4.075 4.972 4.415 2.442.34 3.523-1.832 4.184-3.656.896-2.473 1.794-5.134 1.772-7.698-.023-3.257-.14-6.945-3.825-8.68-1.954-.92-4.573 1.897-6.256 6.77-.652 1.878-.96 3.872-1.34 5.454zM610.566 1929.8c7.154-.184 11.082-2.42 14.8-5.298 3.008-2.334 5.116-5.304 6.337-8.855.263-.765-.01-2.12-.562-2.642-.55-.517-1.83-.59-2.672-.38-1.273.32-2.538.91-3.645 1.63-5.446 3.537-9.025 8.75-14.258 15.544zm439.81-9.686c6.805-.576 10.816-3.86 14.023-8.175 2.474-3.33 5.436-6.777 3.236-12.263-8.868 4.146-13.526 11.025-17.26 20.437zM729.11 1959.87c9.265-1.962 17.252-10.294 18.394-19.188-14.573 8.397-17.697 11.66-18.394 19.188zm-8.574 69.655c-.332 1.828-.936 5.55-1.693 9.24-2.15 10.488-6.807 20.006-11.553 29.48-4.078 8.128-11.66 10.587-19.82 10.84-4.628.153-8.837-2.385-10.344-7.424-.97-3.243-2.262-6.627-2.14-9.907.644-17.09 2.45-33.997 10.946-49.366 2.75-4.97 5.668-9.836 10.36-13.325 7.17-5.346 15.025-3.737 18.772 4.375 3.508 7.594 5.4 15.7 5.472 26.088zm-15.977-26.52c-4.52 1.774-6.427 5.19-8.28 8.428-9.108 15.91-11.892 33.38-12.237 51.41-.077 3.976 1.435 7.256 4.167 10.13 5.91-.394 9.25-3.602 11.772-8.148 6.326-11.382 10.963-23.462 12.158-36.417.765-8.273-1.14-16.52-5.276-23.982-.306-.553-1.218-.776-2.305-1.42zm199.834 78.55c-1.674.455-3.076 1.057-4.52 1.178-1.018.088-2.096-.458-3.78-.87-.245-12.42 1.294-24.737 2.255-37.46-8.954-2.897-17.887-.95-26.9-3.708.8-2.32 1.044-4.607 2.24-6.167 3.69-4.813 7.838-9.27 11.63-14.002 4.975-6.21 9.774-12.55 14.65-18.832 1.4-1.798 2.677-3.695 4.23-5.343 1.598-1.71 3.792-3.16 5.946-1.54 1.242.93 2.223 3.11 2.174 4.696-.098 3.375-1.124 6.717-1.45 10.1-.724 7.453-3.384 14.735-2.377 22.887 3.67.18 6.975.173 10.227.598 1.396.174 3.12.913 3.87 1.982.55.77.03 3.49-.5 3.652-4.308 1.243-8.737 2.086-13.898 3.22-1.26 13.142-2.523 26.27-3.798 39.612zm-5.102-64.226c-5.55 6.702-9.93 10.66-12.653 16.394 4.173 1.786 7.618 1.527 11.508 0 1.39-4.546 1.04-9.166 1.144-16.395zm-322.87 53.655c5.218.392 8.597.56 11.956.935 3.007.347 6 .86 8.98 1.4 2.114.385 3.436 1.895 3.47 3.904.04 2.223-1.726 3.338-3.77 3.33-7.95-.04-15.898-.194-23.84-.364-1.512-.026-3.035-.18-4.528-.428-5.09-.85-6.46-3.803-3.58-7.992 6.22-9.05 12.57-18.014 18.815-27.046 3.662-5.3 7.42-10.546 10.78-16.032 2.975-4.856 5.43-10.092 5.32-15.954-.03-1.573-1.188-3.822-2.486-4.5-1.357-.696-3.898-.463-5.218.423-2.13 1.427-3.983 3.513-5.428 5.674-3.368 5.026-6.41 10.265-9.615 15.398-1.13 1.812-3.062 2.87-4.753 1.706-1.276-.873-2.49-3.116-2.3-4.57.338-2.532 1.48-5.1 2.822-7.326 1.944-3.233 4.41-6.14 6.57-9.254 3.208-4.624 7.704-7.024 13.09-8.31 9.528-2.27 16.987 3.83 15.354 13.574-.918 5.484-3.117 10.964-5.758 15.892-3.38 6.32-7.78 12.092-11.743 18.102-4.347 6.593-8.697 13.18-14.142 21.44zm216.178-57.17c-1.96 2.213-3.81 4.53-5.926 6.572-1.023.99-2.478 1.75-3.86 2.04-.883.187-2.27-.408-2.91-1.125-.64-.71-.67-1.995-.858-3.06-.06-.312.147-.77.376-1.038 5.436-6.305 10.82-12.658 16.382-18.845 1.628-1.813 3.98-2.05 6.322-1.233 2.576.912 3.31 3.03 3.138 5.43-.32 4.543-.807 9.072-1.33 13.584-.958 8.277-2.144 16.534-2.958 24.823-1.105 11.324-1.952 22.664-2.916 34-.062.753-.127 1.518-.307 2.254-.572 2.367-3.795 4.447-6.132 3.8-2.163-.595-2.807-2.436-2.718-4.434.154-3.407.434-6.81.755-10.21 1.64-17.31 3.308-34.62 4.965-51.925l-2.022-.634zm183.887 27.208c-3.354-.108-6.168-3.237-5.984-6.654.265-4.98 4.26-9.08 8.613-8.875 3.72.187 7.286 4.268 7.544 8.64.228 3.843-4.534 7.074-10.173 6.888zm-451.855 0c-3.354-.108-6.168-3.237-5.985-6.654.265-4.98 4.26-9.08 8.613-8.875 3.72.187 7.285 4.268 7.544 8.64.23 3.843-4.533 7.074-10.172 6.888z"/></svg>