<svg xmlns="http://www.w3.org/2000/svg" viewBox="0 0 200.779 79.316" enable-background="new 0 0 200.779 79.316"><path d="M35.46 15.194c-1.713 2.14-3.543 4.197-5.115 6.438-3.804 5.42-7.47 10.938-11.232 16.387-.808 1.17-1.754 2.25-2.698 3.32-1.64 1.854-3.577 3.282-5.906 4.222-1.647.666-3.302.95-5.058.97C2.588 46.57.97 45.305.192 42.05c-.275-1.147-.255-2.495.066-3.626.758-2.668 2.046-5.08 4.16-7.002 1.948-1.77 4.25-2.355 6.772-2.2.66.04 1.32.454 1.926.79.19.106.206.52.373.992-.664.086-1.232.266-1.778.215-3.06-.282-5.372 1.042-7.037 3.446-.974 1.406-1.91 2.96-2.36 4.588-1.305 4.742 1.02 5.836 4.644 5.135 3.435-.667 6.22-2.546 8.336-5.29 1.8-2.336 3.43-4.805 5.1-7.24 4.894-7.14 9.51-14.477 15.043-21.168 2.745-3.32 5.78-6.303 9.338-8.74 1.444-.99 1.87-.967 3.512.412-.664.625-1.334 1.215-1.958 1.852-.85.867-1.795 1.682-2.476 2.672-3.962 5.758-7.06 11.906-8.284 18.877-.297 1.69-.746 3.354-1.15 5.143 1.048.023 1.33-.7 1.707-1.207 5.284-7.114 10.638-14.17 16.714-20.645.698-.744 1.45-1.453 2.042-2.273 1.666-2.31 4.203-3.51 6.397-5.14.57-.423 1.433-.18 1.878.444.386.54.462 1.115.008 1.684-1.333 1.668-2.676 3.326-3.985 5.012-1.583 2.04-2.645 4.35-3.388 6.805-1.27 4.193-2.715 8.32-4.377 12.375-1.003 2.445-2.07 4.87-2.944 7.36-.672 1.915-1.134 3.91-1.59 5.894-.122.53.12 1.145.217 1.877 1.743-.168 3.02-.855 4.112-1.983.99-1.023 2.05-1.986 3-3.045.46-.512.862-1.14 1.086-1.79 1.024-2.964 2.89-5.374 5.024-7.573.83-.854 1.916-1.52 2.993-2.055.687-.342 1.58-.436 2.364-.383 2.015.135 3.317 2.03 2.65 3.93-.326.93-.876 1.887-1.585 2.56-1.958 1.853-4.207 3.22-7.04 3.25-.305.003-.61.02-.912.048-.095.008-.185.076-.54.23-.906 1.514-1.314 3.357-1.213 5.322.056 1.08.7 1.648 1.775 1.7 1.37.07 2.6-.378 3.787-1.013 3.083-1.644 5.756-3.833 8.335-6.16 1.25-1.126 1.986-2.493 2.444-4.11 1.22-4.31 2.526-8.59 4.252-12.742 2.034-4.893 4.126-9.748 6.95-14.246.757-1.203 1.674-2.307 2.544-3.436C87.78.744 88.75.37 89.736.104c1.456-.393 2.903.398 3.388 1.867.456 1.378.46 2.665-.174 4.118-4.307 9.87-9.91 18.947-16.447 27.467-.857 1.115-1.292 2.223-1.25 3.627.052 1.752.14 3.47 1.153 4.973.368.547 1.01.85 1.6.49 1.208-.734 2.49-1.443 3.473-2.43 2.084-2.092 3.986-4.365 5.987-6.54.714-.778 1.052-1.702 1.4-2.675 2.574-7.19 5.185-14.367 7.814-21.537.877-2.387 1.82-4.75 2.77-7.11.62-1.548 1.103-1.604 2.794-.28-1.97 5.268-4.015 10.57-5.934 15.92-1.88 5.244-3.965 10.424-5.71 16.377.785-.78 1.113-1.125 1.46-1.45 1.493-1.384 2.903-2.88 4.517-4.104 1.194-.908 2.632-1.512 4.006-2.156 1.83-.858 3.16-.008 3.94 1.703.288.63.474 1.307.757 2.104 1.142-.127 1.942-.797 2.82-1.223.913-.443 1.77-1.004 2.655-1.504 1.147-.646 2.257-1.39 3.463-1.898 1.43-.605 2.942-.943 4.396.23.384-.216.723-.415 1.07-.6 1.974-1.042 3.074-.872 4.588.694.804.832 1.346 1.81 1.452 2.96.082.88.017 1.774.017 2.765 1.505-.138 2.352-1.09 3.268-1.817 1.274-1.01 2.418-2.186 3.64-3.264.452-.4.932-.8 1.465-1.07.57-.288 1.205-.222 1.726.2.527.426.732 1.016.43 1.633-.893 1.826-1.752 3.678-2.78 5.426-1.197 2.038-2.01 4.224-2.828 6.417-.322.865-.52 1.76-.013 2.703 1.408.102 2.193-.898 2.994-1.787 1.773-1.97 3.502-3.978 5.235-5.982 2.27-2.624 4.28-5.43 5.81-8.56l.164-.257c.397-.608 1.01-.803 1.57-.48.606.35.82.892.616 1.55-.18.58-.444 1.135-.653 1.71-1.15 3.153-2.31 6.308-3.436 9.472-.3.848-.595 1.725-.248 2.72.305-.07.673-.042.844-.212 4.063-4.06 7.325-8.705 10.075-13.803-.612-.723-1.22-1.393-1.775-2.105-.792-1.016-1.032-2.213-.874-3.457.375-2.926 1.93-5.135 4.397-6.652 2.155-1.326 4.456-.168 4.622 2.377.076 1.172-.245 2.418-.61 3.56-.46 1.444-1.147 2.817-1.703 4.14.27.975 1.15.877 1.716 1.232 1.507.943 1.985 1.885 1.486 3.582-.314 1.066-.82 2.082-1.313 3.086-1.077 2.193-2.22 4.354-3.29 6.55-.262.532-.353 1.147-.505 1.67.482.575.977.536 1.41.194 1.118-.88 2.314-1.7 3.28-2.73 3.562-3.798 6.973-7.72 8.997-12.626.187-.456.432-1 .814-1.235.355-.217.98-.195 1.393-.037.276.104.542.63.545.97.003.487-.195.993-.38 1.464-.636 1.61-1.316 3.203-1.948 4.814-.175.447-.238.936-.474 1.896 1.84-1.367 3.19-2.523 4.45-3.787 1.226-1.227 2.435-2.47 3.677-3.678.657-.64 1.326-1.28 2.073-1.803.785-.55 1.684-.723 2.587-.178.945.57 1.078 1.506.843 2.414-.303 1.172-.765 2.312-1.238 3.434-1.068 2.53-2.198 5.03-3.275 7.555-.403.946-.616 1.935-.24 3.144.475-.21.967-.318 1.324-.6 2.003-1.574 4.015-3.142 5.93-4.818.658-.576 1.134-1.418 1.545-2.213.748-1.447 1.35-2.967 2.078-4.426.923-1.846 2.146-3.475 3.877-4.644 1.325-.895 2.773-1.258 4.345-.656 1.322.506 1.835 1.19 1.672 2.555-.396 3.316-2.2 5.65-5.24 6.957-1.295.556-2.69.872-4.185 1.343-.697 2.018-1.45 4.086-.766 6.48.47-.04.893.015 1.244-.12 1.827-.688 3.474-1.68 4.976-2.94 1.09-.915 2.235-1.774 3.42-2.565.364-.244 1.006-.35 1.395-.2.382.147.604.706.878 1.06-1.89 2.102-6.312 5.42-8.342 6.295-.28.12-.562.242-.852.334-3.268 1.027-4.683.234-5.566-3.1-.052-.195-.137-.38-.27-.75-.518.29-1.043.516-1.49.848-1.307.967-2.53 2.06-3.895 2.936-.638.41-1.54.655-2.292.59-1.852-.16-2.625-1.198-2.61-3.083.018-2.412.936-4.567 1.917-6.697.766-1.664 1.584-3.305 2.368-4.96.028-.06-.047-.17-.09-.308-.834-.064-1.146.676-1.62 1.12-3.275 3.06-6.563 6.112-9.178 9.79-1.003 1.41-1.946 2.863-2.917 4.295-.32.475-.767.662-1.314.494-.63-.194-1.085-.57-1.04-1.304.024-.406.07-.814.16-1.21.158-.694.377-1.374.532-2.07.058-.257.01-.538.01-1.095-1.422 1.364-2.654 2.556-3.896 3.737-1.06 1.008-2.316 1.684-3.737 1.97-2.146.43-3.875-1.274-3.394-3.425.288-1.277.784-2.53 1.343-3.72.82-1.75 1.797-3.427 2.674-5.153.413-.815.77-1.66 1.112-2.51.204-.503.167-1.01-.328-1.354-.615-.428-1.528-.365-1.92.22-.853 1.267-1.692 2.548-2.433 3.884-2.15 3.87-5.057 7.15-8.05 10.352-.667.71-1.62 1.24-2.538 1.615-1.9.775-3.544-.465-3.422-2.498.03-.5.227-.99.293-1.49.077-.58.094-1.17.166-2.155-.656.533-1.066.795-1.384 1.14-1.175 1.274-2.32 2.575-3.474 3.868-.9 1.008-1.96 1.77-3.254 2.197-2.15.707-3.99-.396-4.092-2.67-.057-1.29.233-2.623.536-3.896.232-.98.707-1.908 1.117-2.84.362-.828.785-1.63 1.187-2.453-.236-.08-.454-.23-.548-.175-1.832 1.096-3.608 2.264-5.74 2.79-.716.177-1.362.843-1.923 1.4-1.803 1.798-3.534 3.667-5.328 5.474-1.163 1.17-2.53 2.042-4.104 2.585-2.533.875-4.838-.953-5.008-3.018-.065-.8-.154-1.64.01-2.408.465-2.19 1.05-4.352 1.6-6.52.114-.455.274-.898.53-1.72-2.113.726-3.715 1.544-5.023 2.802-.468.45-.642 1.233-.878 1.89-.94 2.614-2.116 5.112-4.182 7.02-.948.875-2.174 1.453-3.282 2.15-.168.107-.38.152-.577.2-1.187.276-3.08-.267-3.595-1.17-.595-1.044-.55-2.263.08-3.214.775-1.168 1.71-2.297 2.793-3.182 2.123-1.734 4.396-3.287 6.575-4.893.428-2.158.428-2.158-.353-3.785-2.44.678-4.378 2.22-6.02 4.006-2.614 2.848-5.026 5.885-7.468 8.89-.498.612-.658 1.5-1.144 2.128-.245.316-.938.545-1.308.432-.37-.115-.838-.72-.826-1.094.03-.988.297-1.97.523-3.26-.53.422-.883.684-1.212.97-1.227 1.06-2.354 2.267-3.688 3.17-3.27 2.212-6.05 1.144-7.267-2.68-.277-.868-.5-1.755-.786-2.765-1.145.334-1.875 1.2-2.767 1.8-1.94 1.304-3.84 2.683-5.862 3.847-1.028.594-2.26.926-3.444 1.135-2.32.41-4.196-.412-5.505-2.42-.22-.338-.46-.66-.77-1.1-.735.613-1.43 1.158-2.085 1.748-.942.85-2.116 1.185-3.27 1.592-1.798.633-4.273-.865-4.372-3.055-.11-2.402.42-4.686 1.217-6.88 1.493-4.114 3.23-8.138 4.747-12.243 1.228-3.325 2.282-6.712 3.422-10.1-.794-.368-1.068.157-1.33.462-2.123 2.473-4.286 4.916-6.3 7.477-3.212 4.08-6.25 8.3-9.492 12.356-2.877 3.604-5.58 7.268-6.89 11.772-.153.527-.516.87-1.118.824-.618-.05-1.186-.582-1.16-1.197.026-.6.105-1.217.292-1.785.604-1.836 1.262-3.654 1.913-5.475 1.72-4.812 2.49-9.867 3.767-14.79.46-1.77.998-3.52 1.527-5.27.203-.674.606-1.313.217-2.04l.488.003-.11-.338-.305.404zm75.116 27.314c1.368.406 2.31-.238 3.17-.89 2.5-1.894 4.716-4.087 6.735-6.638-.953-1.105-2.38-1.812-2.625-3.305-.224-1.355-.258-2.74-.39-4.27-.48.078-1.077-.002-1.39.26-.764.64-1.57 1.338-2.048 2.188-1.854 3.283-3.182 6.775-3.547 10.564-.064.677.06 1.373.096 2.09zM90.424 2.106c-1.7.775-2.58 2.19-3.35 3.584-3.446 6.225-6.523 12.625-8.824 19.373-.22.646-.32 1.332-.602 2.535.65-.658.96-.883 1.153-1.184 2.09-3.244 4.324-6.408 6.193-9.775 2.065-3.72 3.796-7.626 5.664-11.454.46-.945.694-1.902-.233-3.08zM157.42 15.73c-2.173 1.234-3.136 2.835-3.702 4.675-.228.738-.175 1.592-.113 2.38.047.6.35 1.142 1.27 1.17 1.352-2.374 2.817-4.745 2.544-8.224zM119.92 30.644c.06.422.062.73.147 1.014.223.732.757 1.217 1.484 1.318.73.1 1.053-.547 1.25-1.092.268-.738.536-1.533.53-2.3-.008-.972-.043-2.073-1.144-2.59-.584-.276-1.366.565-1.87 2.02-.193.562-.285 1.157-.398 1.63zm-60.31 2.996c2.136-.056 3.31-.724 4.42-1.583.9-.697 1.53-1.584 1.894-2.645.08-.23-.003-.633-.168-.79-.164-.153-.547-.175-.798-.112-.38.096-.758.27-1.09.486-1.627 1.057-2.696 2.614-4.26 4.643zm131.4-2.893c2.032-.172 3.23-1.152 4.188-2.44.74-.995 1.624-2.025.967-3.663-2.65 1.237-4.04 3.292-5.156 6.103zM95.027 42.62c2.768-.586 5.154-3.074 5.496-5.73-4.354 2.507-5.288 3.482-5.496 5.73zm-2.562 20.802c-.1.546-.28 1.657-.506 2.76-.643 3.132-2.034 5.975-3.452 8.804-1.218 2.428-3.483 3.162-5.92 3.237-1.384.046-2.642-.712-3.092-2.217-.29-.97-.676-1.98-.64-2.96.193-5.103.732-10.152 3.27-14.742.822-1.484 1.694-2.938 3.096-3.98 2.143-1.596 4.49-1.115 5.61 1.308 1.048 2.267 1.613 4.688 1.634 7.79zm-4.773-7.92c-1.35.53-1.92 1.55-2.473 2.517-2.722 4.75-3.553 9.968-3.656 15.352-.023 1.188.43 2.167 1.245 3.025 1.765-.118 2.762-1.076 3.516-2.434 1.89-3.4 3.275-7.007 3.632-10.876.23-2.47-.34-4.934-1.576-7.162-.092-.164-.364-.23-.69-.423zm59.704 23.46c-.5.135-.92.314-1.35.35-.305.027-.627-.136-1.13-.26-.073-3.708.387-7.387.674-11.187-2.674-.865-5.343-.284-8.035-1.107.24-.693.31-1.376.67-1.842 1.102-1.438 2.34-2.77 3.474-4.182 1.485-1.854 2.92-3.748 4.376-5.624.418-.537.8-1.104 1.264-1.596.478-.51 1.133-.944 1.776-.46.37.277.664.93.65 1.402-.03 1.008-.337 2.006-.435 3.017-.215 2.226-1.01 4.4-.71 6.835 1.098.054 2.085.052 3.057.18.417.05.932.27 1.156.59.164.23.01 1.043-.15 1.092-1.286.37-2.61.623-4.15.962-.378 3.924-.755 7.845-1.136 11.83zm-1.524-19.182c-1.658 2.002-2.967 3.184-3.78 4.896 1.247.533 2.276.456 3.44 0 .413-1.357.308-2.737.34-4.896zM49.41 75.804c1.558.117 2.568.167 3.57.28.9.103 1.794.256 2.684.417.632.116 1.027.567 1.037 1.167.013.664-.515.997-1.126.994-2.375-.01-4.75-.057-7.122-.107-.452-.008-.907-.053-1.353-.128-1.522-.254-1.93-1.136-1.07-2.387 1.858-2.703 3.755-5.38 5.62-8.077 1.095-1.582 2.218-3.148 3.222-4.787.89-1.45 1.622-3.014 1.59-4.765-.01-.47-.356-1.142-.744-1.344-.405-.208-1.164-.14-1.56.126-.635.426-1.19 1.05-1.62 1.694-1.007 1.5-1.916 3.066-2.874 4.6-.337.54-.915.856-1.42.51-.38-.262-.744-.932-.687-1.366.1-.756.442-1.523.843-2.188.58-.966 1.318-1.834 1.963-2.764.958-1.38 2.302-2.098 3.91-2.48 2.848-.68 5.076 1.143 4.588 4.053-.273 1.637-.93 3.273-1.72 4.745-1.01 1.888-2.324 3.61-3.507 5.406-1.297 1.97-2.597 3.937-4.224 6.404zm64.587-17.074c-.586.66-1.14 1.354-1.77 1.963-.307.296-.74.522-1.154.61-.264.055-.678-.123-.87-.337-.19-.212-.2-.596-.256-.914-.018-.093.044-.23.112-.31 1.623-1.882 3.23-3.78 4.894-5.627.486-.54 1.19-.612 1.89-.368.77.272.988.905.937 1.622-.095 1.355-.24 2.708-.396 4.056-.286 2.472-.64 4.938-.884 7.413-.33 3.38-.583 6.768-.87 10.153-.02.225-.04.453-.093.673-.17.707-1.134 1.328-1.832 1.135-.646-.177-.84-.727-.812-1.323.046-1.018.13-2.034.226-3.05.49-5.17.987-10.34 1.482-15.507l-.605-.19zm54.94 8.126c-1.003-.032-1.844-.967-1.79-1.987.08-1.488 1.273-2.713 2.574-2.65 1.112.055 2.178 1.274 2.255 2.58.07 1.147-1.354 2.112-3.04 2.056zm-135 0c-1.002-.032-1.843-.967-1.788-1.987.078-1.488 1.272-2.713 2.572-2.65 1.11.055 2.177 1.274 2.254 2.58.068 1.147-1.355 2.112-3.04 2.056z" fill-rule="evenodd" clip-rule="evenodd" fill="#fff"/></svg>